<svg width="17" height="18" fill="none" xmlns="http://www.w3.org/2000/svg">
  <path d="M15.559.667H1.441A1.208 1.208 0 0 0 .217 1.858v14.284a1.209 1.209 0 0 0 1.225 1.191h14.117a1.209 1.209 0 0 0 1.225-1.191V1.858A1.208 1.208 0 0 0 15.559.667ZM5.242 14.617h-2.5v-7.5h2.5v7.5Zm-1.25-8.55a1.3 1.3 0 1 1 0-2.6 1.308 1.308 0 1 1 0 2.6Zm10.267 8.55h-2.5v-4.025c0-1.009-.359-1.667-1.267-1.667a1.375 1.375 0 0 0-1.284.908 1.667 1.667 0 0 0-.083.609v4.166h-2.5v-7.5h2.5v1.059a2.5 2.5 0 0 1 2.258-1.25c1.667 0 2.876 1.075 2.876 3.383v4.317Z" fill="#fff"/>
</svg>
