<svg width="19" height="14" fill="none" xmlns="http://www.w3.org/2000/svg">
  <path d="M18.667 5.092a7.083 7.083 0 0 0-.759-3.442 2.433 2.433 0 0 0-1.433-.833A65.3 65.3 0 0 0 9.5.558c-2.32-.04-4.64.044-6.95.25-.457.083-.88.298-1.216.617C.584 2.117.5 3.3.417 4.3a40.242 40.242 0 0 0 0 5.4 7.96 7.96 0 0 0 .25 1.667c.1.42.304.81.592 1.133.339.336.772.563 1.241.65a37.64 37.64 0 0 0 5.417.275c2.917.042 5.475 0 8.5-.233a2.401 2.401 0 0 0 1.275-.65c.233-.234.407-.52.508-.834a8.816 8.816 0 0 0 .434-2.833c.033-.467.033-3.283.033-3.783ZM7.617 9.375V4.217l4.933 2.591c-1.383.767-3.208 1.634-4.933 2.567Z" fill="#fff"/>
</svg>
