<svg width="17" height="14" fill="none" xmlns="http://www.w3.org/2000/svg">
  <path d="M16.834 1.833a7.076 7.076 0 0 1-1.967.534A3.442 3.442 0 0 0 16.375.475c-.672.4-1.407.682-2.175.833a3.417 3.417 0 0 0-5.833 3.117A9.7 9.7 0 0 1 1.325.85c-.3.525-.458 1.12-.458 1.725a3.408 3.408 0 0 0 1.517 2.842 3.375 3.375 0 0 1-1.55-.425v.041a3.417 3.417 0 0 0 2.75 3.334c-.298.09-.606.138-.917.141a4.082 4.082 0 0 1-.642-.058 3.425 3.425 0 0 0 3.192 2.367 6.85 6.85 0 0 1-5.05 1.416 9.642 9.642 0 0 0 5.242 1.542 9.657 9.657 0 0 0 9.758-9.733V3.6a7.026 7.026 0 0 0 1.667-1.767Z" fill="#fff"/>
</svg>
