<svg width="48" height="48" fill="none" xmlns="http://www.w3.org/2000/svg">
  <rect x=".5" y=".5" width="47" height="47" rx="23.5" stroke="url(#a)"/>
  <rect x=".5" y=".5" width="47" height="47" rx="23.5" stroke="url(#b)"/>
  <rect x="6.5" y="6.5" width="35" height="35" rx="17.5" stroke="url(#c)"/>
  <rect x="6.5" y="6.5" width="35" height="35" rx="17.5" stroke="url(#d)"/>
  <path d="M24 15.875c.345 0 .625.28.625.625v1.875a.625.625 0 1 1-1.25 0V16.5c0-.345.28-.625.625-.625ZM20.25 24a3.75 3.75 0 1 1 7.5 0 3.75 3.75 0 0 1-7.5 0ZM29.745 19.139a.625.625 0 1 0-.884-.884l-1.325 1.326a.625.625 0 1 0 .883.883l1.326-1.325ZM32.125 24c0 .345-.28.625-.625.625h-1.875a.625.625 0 1 1 0-1.25H31.5c.345 0 .625.28.625.625ZM28.861 29.745a.625.625 0 1 0 .884-.884l-1.326-1.326a.625.625 0 1 0-.884.884l1.326 1.326ZM24 29c.345 0 .625.28.625.625V31.5a.625.625 0 1 1-1.25 0v-1.875c0-.345.28-.625.625-.625ZM20.465 28.42a.625.625 0 1 0-.884-.885l-1.326 1.326a.625.625 0 1 0 .884.884l1.326-1.326ZM19 24c0 .345-.28.625-.625.625H16.5a.625.625 0 1 1 0-1.25h1.875c.345 0 .625.28.625.625ZM19.58 20.464a.625.625 0 1 0 .885-.883l-1.326-1.326a.625.625 0 1 0-.884.884l1.326 1.325Z" fill="#A685FA"/>
  <defs>
    <linearGradient id="a" x1="3.951" y1="50.634" x2="50.195" y2="-3.22" gradientUnits="userSpaceOnUse">
      <stop stop-color="#A685FA"/>
      <stop offset=".324" stop-color="#A685FA" stop-opacity="0"/>
    </linearGradient>
    <linearGradient id="b" x1="47.854" y1="-6.146" x2="3.951" y2="48" gradientUnits="userSpaceOnUse">
      <stop stop-color="#A685FA"/>
      <stop offset=".577" stop-color="#A685FA" stop-opacity="0"/>
    </linearGradient>
    <linearGradient id="c" x1="2.081" y1="8.032" x2="41.855" y2="42" gradientUnits="userSpaceOnUse">
      <stop stop-color="#A685FA"/>
      <stop offset=".324" stop-color="#A685FA" stop-opacity="0"/>
    </linearGradient>
    <linearGradient id="d" x1="49.113" y1="50.129" x2="7.306" y2="20.516" gradientUnits="userSpaceOnUse">
      <stop stop-color="#A685FA"/>
      <stop offset=".577" stop-color="#A685FA" stop-opacity="0"/>
    </linearGradient>
  </defs>
</svg>
