<svg width="48" height="48" fill="none" xmlns="http://www.w3.org/2000/svg">
  <rect x=".5" y=".5" width="47" height="47" rx="23.5" stroke="url(#a)"/>
  <rect x=".5" y=".5" width="47" height="47" rx="23.5" stroke="url(#b)"/>
  <rect x="6.5" y="6.5" width="35" height="35" rx="17.5" stroke="url(#c)"/>
  <rect x="6.5" y="6.5" width="35" height="35" rx="17.5" stroke="url(#d)"/>
  <path d="M24 20.25A1.875 1.875 0 1 0 24 24a1.875 1.875 0 0 0 0-3.75Z" fill="#A685FA"/>
  <path fill-rule="evenodd" clip-rule="evenodd" d="M15.25 18.063c0-.863.7-1.563 1.563-1.563h14.375c.862 0 1.562.7 1.562 1.563v8.125c0 .862-.7 1.562-1.563 1.562H16.813c-.862 0-1.562-.7-1.562-1.563v-8.125Zm5.625 4.062a3.125 3.125 0 1 1 6.25 0 3.125 3.125 0 0 1-6.25 0Zm8.75-.625a.625.625 0 0 0-.625.625v.006c0 .345.28.625.625.625h.006c.345 0 .625-.28.625-.625v-.006a.625.625 0 0 0-.625-.625h-.006Zm-11.875.625c0-.345.28-.625.625-.625h.006c.345 0 .625.28.625.625v.006c0 .345-.28.625-.625.625h-.006a.625.625 0 0 1-.625-.625v-.006Z" fill="#A685FA"/>
  <path d="M15.875 29a.625.625 0 1 0 0 1.25c4.5 0 8.858.602 13 1.73.992.27 2-.466 2-1.517v-.838A.625.625 0 0 0 30.25 29H15.875Z" fill="#A685FA"/>
  <defs>
    <linearGradient id="a" x1="3.951" y1="50.634" x2="50.195" y2="-3.22" gradientUnits="userSpaceOnUse">
      <stop stop-color="#A685FA"/>
      <stop offset=".324" stop-color="#A685FA" stop-opacity="0"/>
    </linearGradient>
    <linearGradient id="b" x1="47.854" y1="-6.146" x2="3.951" y2="48" gradientUnits="userSpaceOnUse">
      <stop stop-color="#A685FA"/>
      <stop offset=".577" stop-color="#A685FA" stop-opacity="0"/>
    </linearGradient>
    <linearGradient id="c" x1="2.081" y1="8.032" x2="41.855" y2="42" gradientUnits="userSpaceOnUse">
      <stop stop-color="#A685FA"/>
      <stop offset=".324" stop-color="#A685FA" stop-opacity="0"/>
    </linearGradient>
    <linearGradient id="d" x1="49.113" y1="50.129" x2="7.306" y2="20.516" gradientUnits="userSpaceOnUse">
      <stop stop-color="#A685FA"/>
      <stop offset=".577" stop-color="#A685FA" stop-opacity="0"/>
    </linearGradient>
  </defs>
</svg>
