<svg width="48" height="48" fill="none" xmlns="http://www.w3.org/2000/svg">
  <rect x=".5" y=".5" width="47" height="47" rx="23.5" stroke="url(#a)"/>
  <rect x=".5" y=".5" width="47" height="47" rx="23.5" stroke="url(#b)"/>
  <rect x="6.5" y="6.5" width="35" height="35" rx="17.5" stroke="url(#c)"/>
  <rect x="6.5" y="6.5" width="35" height="35" rx="17.5" stroke="url(#d)"/>
  <path d="M16.879 21.121a3 3 0 0 0 4.621-.462 2.997 2.997 0 0 0 2.5 1.34 2.997 2.997 0 0 0 2.5-1.34 3 3 0 1 0 4.622-3.78l-.293-.293A2 2 0 0 0 29.415 16h-10.83a2 2 0 0 0-1.414.586l-.292.292a3 3 0 0 0 0 4.243ZM17 23.032a4.507 4.507 0 0 0 4.5-.29 4.48 4.48 0 0 0 2.5.758 4.48 4.48 0 0 0 2.5-.758 4.508 4.508 0 0 0 4.5.29V30.5h.25a.75.75 0 0 1 0 1.5h-4.5a.75.75 0 0 1-.75-.75v-3.5a.75.75 0 0 0-.75-.75h-2.5a.75.75 0 0 0-.75.75v3.5a.75.75 0 0 1-.75.75h-4.5a.75.75 0 0 1 0-1.5H17v-7.468Z" fill="#A685FA"/>
  <defs>
    <linearGradient id="a" x1="3.951" y1="50.634" x2="50.195" y2="-3.22" gradientUnits="userSpaceOnUse">
      <stop stop-color="#A685FA"/>
      <stop offset=".324" stop-color="#A685FA" stop-opacity="0"/>
    </linearGradient>
    <linearGradient id="b" x1="47.854" y1="-6.146" x2="3.951" y2="48" gradientUnits="userSpaceOnUse">
      <stop stop-color="#A685FA"/>
      <stop offset=".577" stop-color="#A685FA" stop-opacity="0"/>
    </linearGradient>
    <linearGradient id="c" x1="2.081" y1="8.032" x2="41.855" y2="42" gradientUnits="userSpaceOnUse">
      <stop stop-color="#A685FA"/>
      <stop offset=".324" stop-color="#A685FA" stop-opacity="0"/>
    </linearGradient>
    <linearGradient id="d" x1="49.113" y1="50.129" x2="7.306" y2="20.516" gradientUnits="userSpaceOnUse">
      <stop stop-color="#A685FA"/>
      <stop offset=".577" stop-color="#A685FA" stop-opacity="0"/>
    </linearGradient>
  </defs>
</svg>
