<svg width="44" height="44" fill="none" xmlns="http://www.w3.org/2000/svg">
  <rect x=".5" y=".5" width="43" height="43" rx="21.5" fill="#1A1A1A"/>
  <rect x=".5" y=".5" width="43" height="43" rx="21.5" stroke="#262626"/>
  <path d="M21.159 11.31a1 1 0 0 1 1.682 0l3.04 4.731a1 1 0 0 0 .587.427l5.439 1.428a1 1 0 0 1 .52 1.6l-3.56 4.353a1 1 0 0 0-.225.69l.322 5.615a1 1 0 0 1-1.361.989l-5.24-2.042a1 1 0 0 0-.726 0l-5.24 2.042a1 1 0 0 1-1.361-.99l.322-5.613a1 1 0 0 0-.224-.69l-3.56-4.353a1 1 0 0 1 .52-1.6l5.438-1.429a1 1 0 0 0 .588-.427l3.039-4.731Z" fill="#FFE600"/>
</svg>
