<svg width="46" height="20" fill="none" xmlns="http://www.w3.org/2000/svg">
  <g clip-path="url(#a)">
    <path d="M10 20.011c5.523 0 10-4.477 10-10s-4.477-10-10-10-10 4.477-10 10 4.477 10 10 10Z" fill="#666"/>
    <path d="M0 30c5.523 0 10-4.477 10-10S5.523 10 0 10s-10 4.477-10 10 4.477 10 10 10ZM20 30c5.523 0 10-4.477 10-10s-4.477-10-10-10-10 4.477-10 10 4.477 10 10 10ZM0 10c5.523 0 10-4.477 10-10S5.523-10 0-10-10-5.523-10 0s4.477 10 10 10ZM20 10c5.523 0 10-4.477 10-10s-4.477-10-10-10S10-5.523 10 0s4.477 10 10 10Z" fill="#141414"/>
  </g>
  <g clip-path="url(#b)">
    <path d="M30 16.007a6 6 0 1 0 0-12 6 6 0 0 0 0 12Z" fill="#333"/>
    <path d="M24 22a6 6 0 1 0 0-12 6 6 0 0 0 0 12Z" fill="#141414"/>
    <path d="M36 22a6 6 0 1 0 0-12 6 6 0 0 0 0 12ZM24 10a6 6 0 1 0 0-12 6 6 0 0 0 0 12Z" fill="#141414"/>
    <path d="M36 10a6 6 0 1 0 0-12 6 6 0 0 0 0 12Z" fill="#141414"/>
  </g>
  <g clip-path="url(#c)">
    <path d="M42.8 12.803a2.8 2.8 0 1 0 0-5.6 2.8 2.8 0 0 0 0 5.6Z" fill="#333"/>
    <path d="M40 15.6a2.8 2.8 0 1 0 0-5.6 2.8 2.8 0 0 0 0 5.6Z" fill="#141414"/>
    <path d="M45.6 15.6a2.8 2.8 0 1 0 0-5.6 2.8 2.8 0 0 0 0 5.6ZM40 10a2.8 2.8 0 1 0 0-5.6 2.8 2.8 0 0 0 0 5.6Z" fill="#141414"/>
    <path d="M45.6 10a2.8 2.8 0 1 0 0-5.6 2.8 2.8 0 0 0 0 5.6Z" fill="#141414"/>
  </g>
  <defs>
    <clipPath id="a">
      <path fill="#fff" d="M0 0h20v20H0z"/>
    </clipPath>
    <clipPath id="b">
      <path fill="#fff" transform="translate(24 4)" d="M0 0h12v12H0z"/>
    </clipPath>
    <clipPath id="c">
      <path fill="#fff" transform="translate(40 7.2)" d="M0 0h5.6v5.6H0z"/>
    </clipPath>
  </defs>
</svg>
