<svg width="348" height="167" fill="none" xmlns="http://www.w3.org/2000/svg">
  <g clip-path="url(#a)" fill-rule="evenodd" clip-rule="evenodd" fill="#1A1A1A">
    <path d="M300.585 3.284c-.292-.42-.714-.267-.451-2.081.984-2.972-.269.558-.153.053.145.877.682.45 1.011.403-.101.393-.237 1.027-.407 1.625ZM313.949 168.385c4.211-2.717 8.05-5.47 11.748-7.783a312.09 312.09 0 0 1 11.399 15.234c-3.443 3.03-7.112 5.986-11.072 9.38-3.875-5.654-8.014-11.272-12.075-16.831ZM327.46 159.474c3.522-2.094 6.704-4.323 9.861-6.143 3.51 4.133 6.874 8.431 10.459 13.049-2.818 2.461-5.92 4.971-9.032 7.759-3.721-4.889-7.578-10.068-11.288-14.665ZM126.458 136.833c12.565-2.65 24.111-5.261 34.985-7.747 4.191 6.771 8.469 13.237 12.475 20.176-10.548 2.941-22.186 6.731-35.072 10.592a1176.612 1176.612 0 0 0-12.389-23.021h.001ZM198.92 129.187c8.772-1.948 16.49-3.87 24.171-5.322 3.767 5.11 7.869 10.404 11.959 15.953a1690.894 1690.894 0 0 0-23.814 7.439c-3.938-6.086-8.226-12.337-12.316-18.072v.002ZM209.241 89.41c6.986-.28 13.523-.703 19.83-1.039 3.548 3.882 7.021 7.668 10.36 11.601-6.118.557-12.614 1.264-19.525 2.276-3.449-4.433-6.892-8.727-10.665-12.837ZM260.982 170.755c6.63-3.397 12.672-6.367 18.4-9.204 3.949 5.622 8.116 11.44 12.304 17.358-5.501 3.753-11.523 7.891-17.865 12.244-4.352-7.343-8.549-13.838-12.839-20.4v.002ZM282.914 159.482c5.294-2.446 10.293-4.83 15.027-7.203 3.778 4.85 7.572 9.968 11.371 15.227-4.481 3.109-9.171 6.079-14.29 9.044-3.968-5.623-8.07-11.377-12.108-17.067v-.001ZM300.679 150.89c4.303-2.436 8.422-4.234 12.508-6.015 3.556 4.535 7.205 9.168 10.956 13.85-3.865 2.173-7.906 4.695-11.979 7.495-3.773-5.182-7.715-10.376-11.485-15.33ZM314.975 144.377c3.631-1.761 7.216-3.417 10.706-4.882 3.091 3.906 6.361 7.799 9.588 11.693-3.169 1.965-6.525 4.081-9.927 6.35-3.501-4.458-7.036-8.919-10.365-13.161h-.002ZM338.041 133.663c2.885-1.049 5.403-2.224 7.905-3.381a782.521 782.521 0 0 1 8.068 9.231c-2.272 1.469-4.482 3.05-7.193 4.442a463.395 463.395 0 0 0-8.78-10.293v.001ZM347.275 129.739c2.43-1.153 4.624-2.301 6.783-3.15 2.507 2.725 4.826 5.378 7.42 8.323-1.977 1.288-4.012 2.533-6.116 3.958-2.756-3.093-5.345-6.138-8.087-9.131ZM243.364 107.754c5.848-.805 11.421-1.493 16.83-2.341 3.373 4.054 6.772 7.964 10.349 12.033-5.155 1.088-10.642 2.116-16.486 3.561-3.59-4.534-7.189-8.899-10.694-13.253h.001ZM246.502 69.494c5.043.264 9.832.496 14.393.712 2.813 2.793 5.596 5.626 8.466 8.331-4.562.027-9.128-.037-14.04-.104-2.849-3.025-5.864-5.982-8.817-8.939h-.002ZM221.241 157.321c8.12-3.022 15.85-5.71 23.016-8.355a626.943 626.943 0 0 1 12.565 18.724c-6.85 3.51-14.395 7.074-22.105 10.68-4.492-7.059-8.975-14.325-13.475-21.047l-.001-.002ZM270.518 140.37c5.611-1.901 10.731-3.638 15.605-5.426 3.535 4.358 7.233 9.091 10.781 13.958-4.642 2.244-9.723 4.626-14.854 7.087-3.708-5.407-7.703-10.705-11.533-15.619h.001ZM288.908 134.08c4.647-1.562 9-2.941 13.172-4.202 3.495 4.13 6.887 8.323 10.382 12.493-3.969 1.696-8.013 3.401-12.387 5.522-3.79-4.87-7.421-9.56-11.167-13.813ZM303.878 129.419a828.866 828.866 0 0 0 11.304-3.726c3.068 3.64 6.137 7.219 9.274 10.931-3.392 1.52-6.974 3.226-10.619 4.87a2203.444 2203.444 0 0 1-9.957-12.077l-.002.002ZM317.615 124.953c3.3-.996 6.533-1.953 9.486-2.906 3.085 3.441 6.013 6.643 8.902 10.084-2.769 1.093-5.75 2.333-9.014 3.894-3.078-3.917-6.322-7.587-9.374-11.072ZM328.548 121.739c3.001-.828 5.689-1.776 8.391-2.554a267.305 267.305 0 0 1 7.862 8.919c-2.441 1.069-4.95 2.257-7.863 3.246-2.705-3.093-5.577-6.443-8.388-9.611h-.002ZM338.378 118.722c2.586-.697 5.02-1.301 7.318-1.973 2.426 2.648 4.921 5.254 7.224 7.847-2.104.801-4.41 1.745-6.699 2.877-2.559-3.002-5.194-5.857-7.843-8.751ZM346.755 116.417a97.344 97.344 0 0 0 6.293-1.946c2.242 2.417 4.505 4.826 6.618 7.175a87.632 87.632 0 0 1-5.716 2.478c-2.395-2.537-4.762-5.146-7.196-7.707h.001ZM280.945 103.28c4.382-.448 8.601-.788 12.646-1.231 2.992 3.224 6.042 6.527 9.086 9.783-3.903.656-7.801 1.441-12.176 2.328-3.192-3.697-6.35-7.374-9.556-10.88ZM295.43 101.756c3.814-.48 7.541-.805 10.889-1.252a334.022 334.022 0 0 1 8.553 9.111c-3.314.644-6.734 1.293-10.427 1.885-2.932-3.161-6.023-6.53-9.015-9.744ZM307.98 100.319c3.48-.335 6.599-.632 9.626-.924a847.976 847.976 0 0 1 7.987 8.259c-2.91.549-5.92 1.104-9.089 1.777-2.757-3.114-5.666-6.187-8.524-9.112ZM319.034 99.231c2.962-.284 5.774-.456 8.46-.704 2.458 2.485 5.073 5.234 7.446 7.679-2.556.432-5.237.752-7.983 1.185-2.508-2.621-5.304-5.478-7.925-8.16h.002ZM328.808 98.43c2.591-.288 5.014-.64 7.445-.736a321.108 321.108 0 0 1 6.933 7.094 581.8 581.8 0 0 0-7 1.273c-2.407-2.573-4.959-5.15-7.378-7.63ZM337.379 97.654c2.265-.216 4.353-.416 6.472-.556 2.23 2.157 4.47 4.377 6.407 6.438-1.858.372-3.847.757-6.044 1.033a172.435 172.435 0 0 0-6.833-6.915h-.002ZM344.804 97.026c2.03-.207 4.009-.34 5.781-.532 2.048 1.997 4.065 4.057 6.059 6.047-1.67.392-3.584.591-5.382.857-2.102-2.084-4.184-4.214-6.458-6.37v-.002ZM347.91 84.746c-3.094-.269-6.224-.261-9.632-.417-.639-.06-1.361-.113-2.108-.34 3.559.34 6.819.264 9.965.453.741.276 1.305.177 1.775.305v-.001ZM285.895 91.187c3.946-.252 7.862-.392 11.398-.62 2.833 2.84 5.633 5.729 8.366 8.67-3.496.352-7.222.692-10.932 1.124a316.565 316.565 0 0 0-8.83-9.176l-.002.002ZM299.013 90.467c3.531-.056 6.884-.128 10.031-.263 2.554 2.625 5.363 5.374 7.837 7.995-2.978.293-6.212.52-9.552.793-2.705-2.862-5.556-5.754-8.316-8.523v-.002ZM310.56 90.191c3.118-.076 6.048-.071 8.938-.14 2.455 2.34 4.903 4.83 7.28 7.394-2.714.148-5.522.345-8.449.688-2.436-2.608-5.206-5.37-7.771-7.943l.002.001ZM320.845 89.967c2.753-.056 5.319-.007 7.81-.088a423.639 423.639 0 0 1 6.871 6.751c-2.345.104-4.799.4-7.428.685-2.396-2.449-4.843-4.978-7.253-7.348ZM329.856 89.822c2.468.048 4.616-.068 6.866-.047 2.219 2.145 4.376 4.21 6.466 6.31-2.076.188-4.242.365-6.537.508-2.225-2.276-4.488-4.429-6.795-6.77ZM337.752 89.699c2.204-.025 4.2-.032 6.194-.104a450.197 450.197 0 0 1 6.007 5.922c-1.781.345-3.713.431-5.736.572-2.17-2.158-4.206-4.242-6.466-6.39h.001ZM344.876 89.618c1.86 0 3.752.084 5.364.04 1.867 1.749 3.78 3.62 5.669 5.414a85.698 85.698 0 0 0-5.058.44c-1.908-1.98-3.969-3.921-5.975-5.894ZM276.008 80.652c4.151.044 8.157.103 11.899.197 2.731 2.74 5.455 5.377 8.145 8.095-3.682.124-7.554.308-11.442.476a2080.184 2080.184 0 0 1-8.602-8.767v-.001ZM289.655 80.972c3.654.012 7.19.172 10.479.28 2.586 2.518 5.19 5.035 7.698 7.535-3.199-.032-6.628.02-10.083.18-2.641-2.78-5.34-5.386-8.094-7.995ZM301.797 81.28c3.239.064 6.376.192 9.338.325 2.361 2.273 4.765 4.618 7.172 7.083-2.839.02-5.815.076-8.884.123a439.29 439.29 0 0 0-7.624-7.531h-.002ZM312.496 81.62c2.947.168 5.491.22 8.179.372 2.387 2.221 4.554 4.354 6.847 6.574-2.561.012-5.167-.015-7.957.04-2.256-2.36-4.664-4.705-7.069-6.986ZM322.054 82.108c2.448.047 4.846.115 7.231.256 2.209 2.133 4.324 4.157 6.374 6.15-2.137.108-4.437.124-6.94.069-2.214-2.23-4.43-4.318-6.665-6.475Z"/>
    <path d="M330.457 82.4c2.333.16 4.385.249 6.354.328 2.085 1.924 4.218 3.865 6.129 5.747-1.949.032-3.987.096-6.222.04a769.514 769.514 0 0 1-6.261-6.115ZM338.038 82.96c2.075.172 3.911.268 5.782.38 1.908 1.808 3.904 3.672 5.747 5.539-1.761-.136-3.614-.16-5.548-.24a891.59 891.59 0 0 1-5.981-5.677v-.002ZM280.857 72.18c3.799.216 7.394.364 10.871.647 2.576 2.461 5.064 4.843 7.58 7.407-3.431-.232-6.861-.256-10.579-.364a298.677 298.677 0 0 0-7.871-7.69h-.001ZM293.468 73.073c3.403.155 6.53.448 9.685.78 2.398 2.21 4.72 4.462 7.098 6.755-3.065-.257-6.048-.264-9.362-.368-2.498-2.445-5.007-4.934-7.421-7.167ZM304.61 73.977c2.996.232 5.773.527 8.585.832 2.277 2.065 4.475 4.214 6.766 6.37-2.711-.276-5.374-.332-8.351-.552-2.233-2.16-4.606-4.39-7-6.65ZM314.564 74.908c2.65.237 5.146.38 7.623.616 2.139 2 4.215 3.978 6.337 6.006-2.383-.124-4.735-.229-7.374-.348-2.256-2.128-4.346-4.197-6.586-6.274ZM323.418 75.674c2.237.148 4.465.36 6.757.684 2.012 1.84 4.027 3.759 5.984 5.594-2.084-.1-4.244-.308-6.466-.364-2.165-2.03-4.247-3.953-6.275-5.914ZM337.022 77.79c1.968.244 3.853.468 5.583.62 1.778 1.636 3.675 3.37 5.505 5.091-1.739-.155-3.531-.196-5.318-.308-1.816-1.785-3.779-3.589-5.77-5.401v-.002ZM343.668 78.502c1.686.148 3.294.256 4.855.453 1.634 1.576 3.282 3.049 4.853 4.589-1.38-.02-2.956-.133-4.46-.18-1.68-1.569-3.502-3.278-5.248-4.862ZM284.966 65.201c3.418.404 6.714.793 10.036 1.19 2.353 2.192 4.65 4.317 7.067 6.546-3.259-.424-6.317-.608-9.804-.985-2.383-2.308-4.858-4.482-7.299-6.75ZM296.529 66.55c3.043.333 6.1.764 9.006 1.129 2.156 2.037 4.402 4.093 6.653 6.202-2.846-.316-5.594-.537-8.665-.793-2.413-2.264-4.717-4.37-6.994-6.54v.002ZM306.926 67.842c2.702.308 5.352.672 8.07 1.08 2.07 1.946 4.048 3.727 6.21 5.72-2.474-.237-5-.436-7.658-.613-2.208-2.121-4.491-4.227-6.622-6.187ZM316.178 69.107c2.399.368 4.797.685 7.074.993 1.978 1.817 4.047 3.64 6.013 5.43a651.158 651.158 0 0 1-6.826-.74c-2.168-1.966-4.22-3.826-6.261-5.683ZM330.59 71.664c2.064.332 3.975.561 5.77.793 1.854 1.7 3.726 3.374 5.484 5.086-1.766-.184-3.573-.367-5.577-.624-1.865-1.736-3.723-3.44-5.677-5.253v-.002ZM337.691 72.968c1.827.243 3.455.5 5.115.808a987.35 987.35 0 0 1 5.233 4.705c-1.558-.205-3.242-.333-4.927-.473a241.98 241.98 0 0 0-5.422-5.042l.001.002ZM277.633 57.1c3.603.566 7.006 1.07 10.278 1.637 2.35 1.957 4.579 3.97 6.99 6.174-3.297-.504-6.626-.864-10.028-1.305a400.947 400.947 0 0 0-7.238-6.507l-.002.002ZM289.464 58.9c3.221.555 6.296.988 9.313 1.51 2.09 1.941 4.28 3.814 6.498 5.848-2.927-.424-5.948-.796-9.004-1.261-2.239-2.037-4.475-4.022-6.807-6.097ZM281.121 51.687c3.276.578 6.416 1.212 9.485 1.785 2.208 1.956 4.367 3.833 6.529 5.716-2.897-.497-6.041-.977-9.34-1.538-2.179-1.941-4.452-3.948-6.675-5.963h.001ZM245.49 53.74c4.712.651 9.101 1.257 13.275 1.691 2.777 2.396 5.32 4.853 7.78 7.159-4.052-.34-8.366-.828-12.941-1.32a366.224 366.224 0 0 0-8.113-7.528l-.001-.002ZM346.062 105.581a109.68 109.68 0 0 0 5.923-1.089 482.056 482.056 0 0 1 6.521 6.767c-1.705.488-3.55 1.096-5.444 1.668a1183.99 1183.99 0 0 0-7-7.348v.002ZM338.281 107.217c2.41-.412 4.649-.877 6.832-1.32 2.335 2.485 4.657 4.877 6.995 7.35-2.001.653-4.138 1.288-6.328 1.929-2.476-2.702-5.054-5.41-7.499-7.959ZM328.439 108.646c2.767-.552 5.415-.965 7.878-1.325 2.528 2.522 5.093 5.281 7.605 7.975-2.33.557-4.846 1.156-7.355 1.985-2.763-3.037-5.394-5.857-8.129-8.635h.001ZM318.318 110.439c3.116-.609 6.186-1.296 8.879-1.828 2.76 2.901 5.554 5.761 8.192 8.727-2.658.812-5.47 1.7-8.54 2.425-2.812-3.13-5.647-6.167-8.531-9.323v-.001ZM306.286 112.588c3.61-.628 7.19-1.172 10.282-2.064 2.912 3.214 5.888 6.455 8.65 9.611-3.07.889-6.293 1.793-9.707 2.653a760.61 760.61 0 0 0-9.226-10.2h.001ZM292.655 115.473c4.242-.877 8.142-1.66 11.808-2.493 3.147 3.461 6.326 6.919 9.433 10.525-3.826 1.059-7.354 2.381-11.403 3.416a1168.786 1168.786 0 0 1-9.838-11.448ZM276.9 119.082a663.878 663.878 0 0 0 13.789-2.857c3.308 3.801 6.609 7.67 9.914 11.453-4.139 1.369-8.523 2.709-13.122 4.081-3.639-4.438-7.097-8.611-10.581-12.677ZM112.914 97.11c3.123-2.497 6.18-5.017 8.974-7.318 4.514 2.557 9.007 4.938 13.546 7.638-2.533 2.646-5.04 5.419-8.071 8.256-4.894-2.893-9.784-5.77-14.447-8.576h-.002ZM266.098 91.984c1.242-1.251 2.455-2.416 3.718-3.413 1.758 1.232 3.589 2.544 5.398 3.793-1.123 1.185-2.184 2.458-3.323 3.89a363.916 363.916 0 0 0-5.795-4.27h.002ZM315.265 45.74c.483-.737.927-1.506 1.335-2.276 1.582 1.31 3.272 2.728 4.93 4.11-.258.885-.624 1.695-1.037 2.562l-5.227-4.395h-.001ZM58.426 173.755c3.903-3.057 7.584-5.985 11.16-8.564 4.656 1.434 9.225 3.13 14.019 4.75-3.477 2.817-6.898 5.862-10.414 9.143-5-1.882-10.115-3.577-14.767-5.33l.002.001ZM304.123 55.657c.384-.422.687-.834.988-1.23 1.028.747 2.063 1.48 3.062 2.212-.231.453-.47.985-.738 1.43-1.106-.8-2.171-1.595-3.312-2.414v.002ZM268.693 36.335a59.377 59.377 0 0 1 2.675-1.066c1.311.892 2.621 1.815 3.961 2.788-.731.44-1.535.832-2.448 1.338-1.365-1.066-2.777-2.061-4.188-3.058v-.002ZM71.489 72.516c3.675-1.512 7.092-2.832 10.338-4.077 4.199 1.742 8.174 3.41 11.978 5.178-2.933 1.465-6.023 2.965-9.48 4.81-4.436-2.069-8.748-4.12-12.836-5.91ZM283.723 33.978c.56-.264.979-.61 1.423-.87 1.068.698 2.086 1.486 3.114 2.247-.377.334-.724.729-1.178 1.033a81.75 81.75 0 0 0-3.359-2.41ZM307.086 28.218c.297-.217.622-.383.914-.582.769.596 1.613 1.212 2.352 1.78a7.607 7.607 0 0 0-.706.735c-.843-.636-1.718-1.284-2.56-1.933ZM55.603 122.148c2.616-1.252 4.734-2.433 6.968-3.565 3.28.929 6.422 1.769 9.552 2.678-1.92 1.16-4.094 2.512-6.396 3.793-3.429-.933-6.787-1.949-10.124-2.906ZM248.144 30.28c.918-.272 1.856-.458 2.65-.736 1.278.834 2.627 1.7 3.836 2.504-.77.338-1.49.627-2.341.944a133.89 133.89 0 0 0-4.145-2.713ZM281.974 9.663a13.293 13.293 0 0 1 1.738-.23c.961.61 1.876 1.306 2.796 1.974-.545.095-1.093.198-1.642.319-.982-.72-1.937-1.404-2.892-2.063ZM296.488 34.919c.53-.168 1.052-.287 1.54-.436a117.07 117.07 0 0 0 2.615 1.826c-.492.174-.944.336-1.439.513-.93-.647-1.788-1.255-2.717-1.903h.001ZM308.962 48.522c.53-.174 1.025-.374 1.512-.502.774.526 1.625 1.09 2.442 1.615a18.45 18.45 0 0 0-1.44.564c-.812-.554-1.664-1.11-2.514-1.677ZM226.599 55.797c1.149-.3 2.251-.607 3.309-.89 1.394.751 2.751 1.466 4.222 2.253-1.088.249-2.156.589-3.222.904-1.387-.774-2.904-1.543-4.309-2.267ZM321.781 60.427c.491-.172.987-.4 1.438-.58.761.507 1.446.972 2.172 1.468-.413.192-.83.408-1.286.64-.762-.527-1.527-.988-2.324-1.53v.002ZM315.548 40.246c.43-.112.851-.154 1.278-.233.625.426 1.282.904 1.912 1.305-.352.076-.78.186-1.138.308-.695-.48-1.354-.944-2.052-1.379v-.001ZM0 150.239c3.492-1.052 7.184-2.3 10.915-3.385 3.457.741 7.19 1.269 10.7 1.917a252.088 252.088 0 0 0-10.346 3.426c-3.922-.66-7.55-1.269-11.269-1.956v-.002ZM268.333 15.95c.77.03 1.463.037 2.156.043.813.517 1.66 1.057 2.535 1.635-.69-.032-1.322.026-2.018.02-.875-.577-1.752-1.16-2.671-1.699h-.002ZM172.443 82.337c1.738-.424 3.6-.677 5.374-1.062 1.747.609 3.337 1.14 4.899 1.766-1.61.296-3.353.712-5.172 1.128-1.7-.628-3.445-1.232-5.099-1.832h-.002ZM178.377 113.924c1.568-.98 3.119-1.956 4.68-2.805 2.185.84 4.413 1.828 6.656 2.781-1.452.968-2.895 1.911-4.353 3.012-2.431-1.104-4.734-2.029-6.983-2.99v.002ZM216.351 74.918c1.414-.808 2.717-1.53 3.927-2.233 1.861 1.033 3.8 2.129 5.737 3.245-1.218.749-2.306 1.648-3.663 2.421-2.06-1.157-4.026-2.308-6.001-3.433Z"/>
  </g>
  <defs>
    <clipPath id="a">
      <path fill="#fff" transform="matrix(-1 0 0 1 398 0)" d="M0 0h398v217H0z"/>
    </clipPath>
  </defs>
</svg>
