<svg width="358" height="302" fill="none" xmlns="http://www.w3.org/2000/svg">
  <g clip-path="url(#a)" stroke-miterlimit="10">
    <path d="M-157.704 333.23c68.1-11.928 137.671-8.194 205.528 3.877 29.448 5.242 58.942 8.697 88.57 2.684 37.618-7.638 65.361-30.246 99.801-44.696 55.853-23.434 100.331 33.414 152.431 42.057 20.569 3.411 37.529-5.295 57.218-9.092 25.274-4.873 47.109 2.298 69.815 13.257" stroke="url(#b)"/>
    <path d="M-157.704 321.212c68.153-13.983 135.005-5.708 202.152 9.433 29.539 6.66 59.158 10.304 88.956 2.935 15.469-3.823 30.086-10.061 44.2-17.385 21.125-10.958 39.818-29.267 61.015-39.059 56.976-26.324 97.629 40.056 148.311 51.077 23.064 5.017 38.408-6.004 59.677-11.416 25.283-6.426 47.324 3.94 69.052 16.209" stroke="url(#c)"/>
    <path d="M-157.704 308.89c66.806-15.859 128.082-2.621 192.815 14.997 30.059 8.176 60.1 13.122 90.706 4.64 16.197-4.487 31.271-11.883 45.744-20.31 22.679-13.203 42.242-34.249 65.074-46.222 59.965-31.44 95.528 45.647 147.35 57.925 24.357 5.771 38.624-7.458 60.315-14.288 26.252-8.266 49.586 5.466 71.349 19.063" stroke="url(#d)"/>
    <path d="M-157.704 296.432c63.799-17.573 117.982-.215 178.441 19.656 29.987 9.854 59.893 17.232 91.146 9.154 47.549-12.287 78.541-49.677 118.503-74.87 64.894-40.899 93.813 50.18 150.429 61.776 24.511 5.026 38.373-10.6 60.037-18.148 27.438-9.558 52.765 7.656 74.807 22.366" stroke="url(#e)"/>
    <path d="M-157.704 284.038C-95.8 264.05-48.269 286.515 8.581 308.782c30.696 12.018 61.742 21.765 94.45 11.829 48.491-14.728 80.094-54.846 120.182-82.75 68.153-47.433 90.527 53.922 149.064 65.841 24.915 5.071 40.294-12.269 61.626-20.732 30.131-11.955 57.793 8.391 81.756 25.112" stroke="url(#f)"/>
    <path d="M-157.704 271.868c27.733-10.564 54.803-12.996 83.488-4.47 26.485 7.871 49.227 23.766 74.222 35.012 29.52 13.283 59.849 24.932 92.152 14.351 51.311-16.81 82.195-62.458 124.07-92.739 67.803-49.04 87.528 55.492 143.192 69.592 28.183 7.135 44.514-13.552 68.477-23.012 32.384-12.789 62.641 11.084 87.762 29.169" stroke="url(#g)"/>
    <path d="M-157.704 260.119c24.959-11.299 49.829-14.818 76.189-5.986 25.965 8.697 47.054 27.006 70.972 39.679 27.823 14.746 56.455 29.545 88.47 20.104 53.681-15.814 87.376-67.08 129.035-100.252 71.035-56.569 82.824 57.189 141.02 70.284 29.862 6.722 48.455-17.268 74.097-26.62 34.494-12.574 67.579 14.899 93.57 34.123" stroke="url(#h)"/>
    <path d="M-157.704 248.963c57.685-30.964 92.331 5.664 139.314 35.263 26.683 16.811 55.413 36.259 88.112 25.436 52.953-17.529 87.788-70.23 127.93-105.278 25.911-22.617 50.717-27.867 72.912.745 19.249 24.807 31.612 60.537 65.863 67.726 29.826 6.256 50.889-18.3 76.476-28.307 37.655-14.737 74.932 17.483 102.756 38.601" stroke="url(#i)"/>
    <path d="M-157.704 238.588c55.871-35.101 90.688 1.346 134.753 34.428C.554 290.661 27.165 315.1 58.921 306.817c19.33-5.044 36.47-19.378 51.23-32.032 28.371-24.314 51.92-52.998 78.855-78.685 25.821-24.627 51.274-34.32 73.414-1.831 16.502 24.215 29.161 61.623 62.336 66.909 31.54 5.026 54.623-22.024 82.285-31.376 39.899-13.499 80.121 22.778 108.618 45.018" stroke="url(#j)"/>
    <path d="M-157.704 229.182c21.781-15.661 45.815-25.489 72.355-15.948 23.63 8.499 42 28.244 60.163 44.695 20.47 18.543 46.327 51.463 77.75 44.992 17.688-3.644 33.247-17.178 46.463-28.702 29.17-25.444 54.739-54.918 80.965-83.27 24.546-26.549 51.75-45.648 74.644-8.697 15.416 24.87 27.384 64.207 62.345 65.589 31.028 1.23 54.344-23.541 82.311-32.678 42.898-14.01 86.415 27.168 116.375 51.355" stroke="url(#k)"/>
    <path d="M-157.704 220.548c22.356-17.411 47.261-28.971 75.497-18.937 23.828 8.463 43.562 27.76 61.178 45.109 18.315 18.048 42.897 53.5 72.884 47.451 16.78-3.384 31.54-16.945 43.913-27.949 28.29-25.175 53.554-53.877 79.115-81.726 23.406-25.499 50.897-48.744 74.115-11.964 15.191 24.062 26.728 62.466 61.034 62.942 30.759.422 56.409-21.899 85.131-29.546 44.702-11.91 88.39 27.131 120.496 52.073" stroke="url(#l)"/>
    <path d="M-157.704 210.927c24.663-19.395 50.978-29.824 81.127-16.361 24.932 11.138 46.767 32.211 66.061 50.87 17.31 16.748 38.759 45.01 66.052 36.205 16.655-5.376 31.137-19.736 43.562-31.278 24.906-23.128 48.052-48.178 71.547-72.715 22.392-23.398 49.56-46.159 73.63-13.535 17.122 23.21 28.021 60.33 62.201 62.027 30.445 1.508 59.884-18.57 89.234-23.955 44.388-8.149 85.67 22.438 119.957 46.006" stroke="url(#m)"/>
    <path d="M-157.704 200.238c26.521-20.23 53.546-29.124 84.53-13.149C-49.437 199.322-27.53 219.023-8.003 237c18.199 16.756 40.545 45.629 68.045 32.848 14.357-6.668 26.172-19.368 37.448-30.111 23.721-22.617 46.157-46.598 69.321-69.772 23.962-23.972 51.112-42.56 75.973-10.689 17.112 21.944 29.439 56.489 61.887 57.925 29.852 1.328 59.507-12.969 88.641-17.726 44.972-7.342 84.898 15.581 122.354 37.668" stroke="url(#n)"/>
    <path d="M-157.704 188.678c30.589-22.061 59.768-27.051 92.34-6.525 23.406 14.746 45.044 34.725 65.99 52.737 17.49 15.043 37.16 38.656 61.635 24.978 13.108-7.324 24.017-20.382 34.458-30.946 22.23-22.5 43.876-45.548 66.753-67.403 23.702-22.644 50.834-38.987 76.063-10.375 18.836 21.361 31.881 55.43 64.248 58.518 28.523 2.719 59.606-8.428 87.662-12.772 44.837-6.938 84.287 8.903 124.204 28.245" stroke="url(#o)"/>
    <path d="M-157.704 176.463c33.138-22.285 63.61-24.673 96.82-1.355 25.059 17.591 47.576 39.822 71.404 59.1 16.385 13.247 34.512 31.413 54.991 16.191 13.54-10.061 24.591-25.22 35.832-37.569 19.007-20.867 38.489-41.456 59.4-60.429 25.623-23.255 53.411-34.24 79.214-6.211 18.89 20.517 33.363 52.54 64.4 56.013 29.377 3.285 61.142-4.424 90.24-8.418 42.79-5.87 80.875 3.688 121.062 18.56" stroke="url(#p)"/>
    <path d="M-157.704 163.781c37.78-23.613 69.895-21.1 104.578 6.579 26.315 21.001 48.742 45.441 76.17 65.257 18.819 13.589 32.385 21.262 49.56 2.325 29.188-32.185 52.827-68.866 87.025-96.616 25.103-20.365 52.72-27.958 77.733-4.255 21.135 20.024 35.356 50.763 65.864 57.979 28.164 6.651 63.512.09 91.829-3.769 41.793-5.699 79.51-2.352 120.612 7.772" stroke="url(#q)"/>
    <path d="M-157.704 150.848c42.305-24.672 76.754-16.658 112.425 14.926 25.551 22.626 46.803 48.824 75.802 67.411 21.287 13.651 32.492 16.066 47.055-5.672 23.074-34.437 46.3-69.637 79.914-95.037 27.177-20.544 54.713-25.157 81.271-1.472 22.113 19.727 37.852 51.463 69.123 58.446 27.733 6.193 60.1 3.249 88.058-.557 40.59-5.528 78.72-8.023 119.723-3.455" stroke="url(#r)"/>
    <path d="M-157.704 137.87c46.112-25.444 82.186-12.906 118.736 21.908 25.866 24.637 47.19 54.73 79.035 72.196 23.64 12.969 31.935 6.228 43.212-16.003 17.938-35.353 40.626-71.082 73.854-94.112 28.129-19.503 56.581-20.104 83.003 2.306 23.047 19.557 39.837 50.467 70.712 59.137 66.223 18.596 138.291-9.199 204.819-11.506" stroke="url(#s)"/>
    <path d="M-157.704 125.045c22.939-12.215 44.505-19.467 70.173-10.573 21.234 7.36 38.624 22.806 54.201 38.539 25.696 25.974 47.665 60.923 81.9 76.36 25.677 11.578 31.755-4.021 40.419-25.785 14.123-35.506 35.446-71.882 68.764-92.668 72.615-45.315 98.822 46.374 156.597 66.254 67.471 23.218 135.337-6.076 201.317-18.848" stroke="url(#t)"/>
    <path d="M-157.704 112.579c23.927-12.655 45.977-19.71 72.113-10.097 21.924 8.059 39.647 24.528 55.53 41.213 24.977 26.234 50.807 71.648 88.066 82.095 26.082 7.314 30.194-17.08 36.802-36.717 11.564-34.375 31.495-72.276 64.84-90.46 69.222-37.749 104.084 47.128 156.346 71.119 68.566 31.475 134.96-.799 199.666-24.475" stroke="url(#u)"/>
    <path d="M-157.704 100.687c24.16-13.14 45.923-20.275 72.517-10.968 22.05 7.719 40.07 24.942 55.745 41.725 25.435 27.239 52.702 78.98 92.25 86.699 26.881 5.25 30.652-21.594 36.524-41.752 10.082-34.581 28.236-72.859 63.08-88.943 69.321-31.996 106.706 49.489 157.837 75.839 26.62 13.714 61.087 20.742 90.742 15.967 37.592-6.049 71.969-28.316 104.676-46.383" stroke="url(#v)"/>
    <path d="M-157.704 89.558c25.731-14.872 50.601-23.443 79.089-10.591 21.377 9.648 38.336 27.383 53.662 44.597 22.966 25.794 51.912 80.138 90.545 84.213 29.08 3.069 32.752-28.675 38.983-50.108 9.634-33.127 26.979-68.641 61.896-81.422 68.799-25.192 108.581 50.351 158.222 79.87 25.085 14.916 57.873 25.13 87.214 21.477 39.306-4.901 73.324-33.334 103.742-56.265" stroke="url(#w)"/>
    <path d="M-157.704 79.407c24.295-15.473 48.213-26.243 76.916-14.657 23.002 9.29 41.317 29.008 57.119 47.434 22.589 26.341 50.996 80.425 91.128 81.376 28.614.673 33.911-31.529 40.663-53.033 10.441-33.226 26.952-65.455 63.574-74.852 70.128-18.004 109.067 51.068 159.246 84.204 24.564 16.227 57.325 29.608 87.25 25.291 39.135-5.654 70.577-38.17 97.467-64.252" stroke="url(#x)"/>
    <path d="M-157.704 70.44c22.302-16.163 45.465-29.707 73.827-20.211 22.105 7.395 39.513 25.507 54.39 42.685 24.367 28.128 48.877 78.164 90.823 81.359 31.89 2.423 40.178-28.559 49.353-53.069 12.516-33.441 29.96-61.758 68.288-66.936 67.947-9.182 107.101 49.219 154.308 85.981 23.666 18.425 55.71 36.07 86.675 33.055 41.075-4.003 71.305-42.183 95.699-71.451" stroke="url(#y)"/>
    <path d="M-157.704 63.368c22.194-15.482 45.079-28.226 72.876-19.18 21.646 7.046 38.875 24.359 53.572 41.017 23.676 26.817 48.734 78.298 89.477 79.707 31.504 1.086 42.287-26.808 53.582-51.328 14.481-31.422 34.081-60.187 71.25-65.204 65.568-8.85 106.526 45.71 153.06 80.605 22.832 17.115 55.036 34.527 84.359 33.952 40.994-.807 71.358-39.786 95.187-68.237" stroke="url(#z)"/>
    <path d="M-157.704 58.53c21.844-14.943 44.397-27.337 71.646-19.098 21.054 6.363 38.031 22.572 52.495 38.44 23.298 25.57 48.249 76.512 87.672 76.755 30.912.188 44.074-24.404 57.568-48.358 16.484-29.259 38.121-57.333 73.971-62.251 63.197-8.66 105.888 40.271 152.449 72.842 22.607 15.814 54.462 33.459 82.438 35.954 40.788 3.634 71.645-35.73 95.114-63.158" stroke="url(#A)"/>
    <path d="M-157.704 55.533c20.955-14.315 43.355-26.692 69.527-20.05C-65.867 41.137-48.143 58-32.952 74.327c23.091 24.816 46.246 70.912 84.825 69.197 29.188-1.292 44.065-23.442 59.31-45.243 18.72-26.781 41.318-51.894 75.596-56.758 62.246-8.84 105.853 33.459 154.281 63.633 22.374 13.947 50.763 30.488 76.539 37.157 41.784 10.806 73.603-28.334 98.06-55.977" stroke="url(#B)"/>
    <path d="M-157.704 53.99c20.38-14.1 42.305-26.746 68.045-21.514 21.431 4.362 38.849 19.368 53.78 34.437 23.415 23.623 45.214 66.048 82.59 64.387 28.353-1.256 45.402-19.906 62.748-40.001 20.785-24.071 44.774-46.94 77.733-51.733 59.615-8.67 105.296 25.148 154.29 52.056 24.313 13.355 49.883 29.68 75.408 40.486 41.093 17.403 73.396-20.256 98.759-47.73" stroke="url(#C)"/>
    <path d="M-157.704 53.514c42.88-30.39 79.968-30.237 118.907 5.798 23.909 22.123 44.226 60.097 80.291 58.804 27.429-.987 46.498-16.101 65.828-33.845 22.778-20.903 47.872-41.123 79.52-45.826 56.805-8.446 104.901 16.011 154.335 39.212 27.213 12.771 49.227 28.792 74.572 44.327 40.025 24.529 72.697-10.491 99.918-38.538" stroke="url(#D)"/>
    <path d="M-157.704 53.72c39.908-29.223 76.638-34.895 116.16-2.37 24.537 20.195 43.436 53.277 78.038 52.595 57.613-1.131 93.094-57.54 149.405-66.048 53.941-8.15 104.614 6.3 154.227 25.444 30.329 11.704 49.425 28.28 74.025 48.502 38.589 31.717 71.386.691 101.508-28.72" stroke="url(#E)"/>
    <path d="M-157.704 54.223c36.496-27.805 72.939-39.58 112.802-12.036C-20.257 59.213-2.184 87.664 29.66 88.76c57.263 1.983 99.873-42.856 154.829-51.427 50.143-7.818 103.734-3.483 152.108 11.021 34.44 10.33 52.028 29.115 76.305 54.191 9.068 9.37 19.268 19.126 32.887 20.598 27.097 2.917 52.442-23.927 69.869-40.047" stroke="url(#F)"/>
    <path d="M-157.704 54.636c33.955-26.908 70.227-44.005 110.979-21.478 25.21 13.938 42.745 37.597 72.813 39.347 55.943 3.258 103.069-26.71 156.884-35.066 48.276-7.494 102.98-13.74 151.193-3.401 37.089 7.952 53.77 30.13 76.251 58.472 8.61 10.86 18.361 23.353 32.591 26.764 27.491 6.588 54.614-20.49 72.642-36.277" stroke="url(#G)"/>
    <path d="M-157.704 54.564C-124.566 27.279-87.737 6.16-45.073 24.363c23.262 9.926 40.572 28.118 66.456 30.65 55.63 5.447 106.212-9.335 160.53-17.304 28.622-4.2 56.823-8.365 85.203-14.082 22.059-4.443 43.499-6.75 65.927-3.537 38.749 5.547 55.117 33.226 75.21 63.382 8.044 12.072 17.714 27.06 32.33 31.862 28.012 9.208 55.952-16.999 75.076-32.912" stroke="url(#H)"/>
    <path d="M-157.704 53.63C-125.787 26.508-88.94 1.378-45.315 13c23.127 6.166 41.793 20.508 65.828 23.542 54.83 6.91 105.628 8.481 160.412.852 29.009-4.038 56.204-9.989 83.874-19.574 21.306-7.378 41.749-13.427 64.589-11.811 40.671 2.872 57.191 35.568 75.552 67.322 7.82 13.525 17.265 30.928 32.42 37.506 28.55 12.395 57.972-13.65 78.316-29.779" stroke="url(#I)"/>
    <path d="M-157.704 51.45C-126.236 24.074-89.533-3.883-45.387.353-21.685 2.625.006 13.826 23.538 17.29c53.788 7.925 101.103 26.01 156.355 19.27 29.233-3.572 55.503-11.201 81.845-24.25 19.842-9.828 38.75-19.773 61.482-20.06 44.191-.539 60.881 38.045 78.676 72.079 7.685 14.7 16.924 33.827 32.582 41.707 29.053 14.629 59.687-11.138 81.181-27.536" stroke="url(#J)"/>
    <path d="M-157.704 47.635c32.115-28.262 68.916-58.042 113.493-60.985C-20.177-14.94 5.124-7.795 28.512-2.948c52.603 10.895 96.399 44.04 152.261 38.009 28.721-3.096 54.084-12.44 78.164-28.2 19.429-12.717 37.232-26.35 61.357-27.76 45.151-2.63 61.689 42.183 78.163 76.19 7.829 16.146 16.817 35.676 32.959 45.234 28.991 17.16 62.417-9.953 84.243-26.108" stroke="url(#K)"/>
    <path d="M-157.704 41.783c54.955-48.25 112.873-85.451 187.689-67.375 53.258 12.87 94.279 62.924 152.063 58.203 29.277-2.397 53.941-14.145 76.215-32.75 17.445-14.567 32.986-30.542 56.787-33.118 45.394-4.91 62.03 40.989 77.59 74.95 8.493 18.534 17.687 41.716 36.119 52.756 29.717 17.797 64.23-9.55 86.89-26.028" stroke="url(#L)"/>
    <path d="M-157.704 33.831C-104.823-11.33-36.795-61.286 37.185-40.572c51.93 14.54 91.164 69.907 148.238 66.981 28.542-1.463 52.792-15.132 72.939-34.5 15.981-15.356 30.265-32.678 53.77-35.281 43.544-4.837 61.267 40.469 76.611 72.68 9.185 19.27 18.809 42.856 37.699 54.712 30.248 18.982 65.182-6.938 89.207-23.667" stroke="url(#M)"/>
    <path d="M-157.704 25.52c53.07-43.241 122.74-90.989 195.553-73.056 53.52 13.175 95.914 68.12 153.859 64.36 26.261-1.706 48.267-14.46 66.708-32.445 14.715-14.351 27.617-30.704 49.102-34.213 42.852-7 64.023 39.445 80.651 70.248 9.552 17.68 19.913 38.17 37.25 49.578 30.319 19.951 64.436-2.136 90.24-18.74" stroke="url(#N)"/>
    <path d="M-157.704 17.21c54.075-41.716 127.14-87.848 199.414-69.467C94.26-38.894 139.24 11.259 195.946 8.18c24.178-1.31 45.349-14.19 62.255-30.578 13.548-13.13 25.605-28.774 45.07-32.894 42.179-8.921 66.438 37.884 84.808 67.107 11.043 17.564 22.589 36.896 41.551 46.831 30.005 15.716 59.848-1.633 86.029-17.169" stroke="url(#O)"/>
    <path d="M-157.704 8.899c55.808-40.415 130.65-82.858 202.853-64.98C97.195-43.192 144.088 3.244 199.923-.57c22.491-1.535 41.713-12.834 57.784-27.94 13.512-12.699 25.65-28.18 44.953-31.744 40.106-7.413 66.232 36.537 85.805 63.768 11.231 15.625 23.137 31.565 40.258 41.034 29.789 16.46 59.812 1.39 86.936-13.4" stroke="url(#P)"/>
    <path d="M-157.704.588c56.194-37.83 128.702-74.35 199.163-61.075C95.992-50.211 145.273-4.654 202.545-8.665c21.718-1.526 40.213-12.601 56.033-26.836 12.937-11.65 24.69-25.076 42.619-28.46 37.116-7.01 64.75 30.847 85.149 55.583 13.35 16.2 27.94 33.98 47.916 42.263 28.246 11.713 56.051-.798 81.405-13.49" stroke="url(#Q)"/>
    <path d="M-157.704-7.723c57.595-35.595 131.602-68.255 201.407-54.91 53.214 10.178 104.919 50.602 160.575 46.5 40.419-2.98 58.061-42.586 94.495-50.61 36.631-8.06 66.456 27.607 88.973 50.691 13.539 13.884 27.671 28.469 45.951 36.008 28.299 11.668 55.763 1.32 81.952-10.618" stroke="url(#R)"/>
    <path d="M-157.704-16.034C-98.592-49.07-25.985-75.888 43.164-64.768c53.645 8.625 106.302 45.27 161.85 41.114 38.157-2.854 58.555-38.44 93.777-45.342 34.341-6.722 63.888 21.594 87.474 42.282 14.563 12.78 29.547 26.189 47.89 33.288 28.092 10.878 54.964 2.531 81.512-8.445" stroke="url(#S)"/>
    <path d="M-157.704-24.345c60.001-29.725 131.8-51.678 199.701-42.003 53.68 7.647 107.586 39.347 162.676 35.353 36.613-2.657 60.297-33.531 94.872-39.814 34.108-6.201 65.173 19.386 90.68 38.081 13.853 10.151 28.29 20.419 44.63 26.199 28.165 9.962 53.869 3.392 80.804-6.588" stroke="url(#T)"/>
  </g>
  <defs>
    <linearGradient id="b" x1="178.977" y1="289.473" x2="178.977" y2="342.966" gradientUnits="userSpaceOnUse">
      <stop stop-color="#333"/>
      <stop offset="1" stop-color="#333" stop-opacity="0"/>
    </linearGradient>
    <linearGradient id="c" x1="178.977" y1="271.012" x2="178.977" y2="337.651" gradientUnits="userSpaceOnUse">
      <stop stop-color="#333"/>
      <stop offset="1" stop-color="#333" stop-opacity="0"/>
    </linearGradient>
    <linearGradient id="d" x1="178.973" y1="254.517" x2="178.973" y2="332.944" gradientUnits="userSpaceOnUse">
      <stop stop-color="#333"/>
      <stop offset="1" stop-color="#333" stop-opacity="0"/>
    </linearGradient>
    <linearGradient id="e" x1="178.977" y1="239.881" x2="178.977" y2="328.69" gradientUnits="userSpaceOnUse">
      <stop stop-color="#333"/>
      <stop offset="1" stop-color="#333" stop-opacity="0"/>
    </linearGradient>
    <linearGradient id="f" x1="178.977" y1="225.302" x2="178.977" y2="324.714" gradientUnits="userSpaceOnUse">
      <stop stop-color="#333"/>
      <stop offset="1" stop-color="#333" stop-opacity="0"/>
    </linearGradient>
    <linearGradient id="g" x1="178.977" y1="211.025" x2="178.977" y2="320.876" gradientUnits="userSpaceOnUse">
      <stop stop-color="#333"/>
      <stop offset="1" stop-color="#333" stop-opacity="0"/>
    </linearGradient>
    <linearGradient id="h" x1="178.973" y1="197.991" x2="178.973" y2="316.886" gradientUnits="userSpaceOnUse">
      <stop stop-color="#333"/>
      <stop offset="1" stop-color="#333" stop-opacity="0"/>
    </linearGradient>
    <linearGradient id="i" x1="178.977" y1="185.509" x2="178.977" y2="312.787" gradientUnits="userSpaceOnUse">
      <stop stop-color="#333"/>
      <stop offset="1" stop-color="#333" stop-opacity="0"/>
    </linearGradient>
    <linearGradient id="j" x1="178.977" y1="173.551" x2="178.977" y2="308.48" gradientUnits="userSpaceOnUse">
      <stop stop-color="#333"/>
      <stop offset="1" stop-color="#333" stop-opacity="0"/>
    </linearGradient>
    <linearGradient id="k" x1="178.982" y1="161.704" x2="178.982" y2="303.751" gradientUnits="userSpaceOnUse">
      <stop stop-color="#333"/>
      <stop offset="1" stop-color="#333" stop-opacity="0"/>
    </linearGradient>
    <linearGradient id="l" x1="178.977" y1="153.431" x2="178.977" y2="294.857" gradientUnits="userSpaceOnUse">
      <stop stop-color="#333"/>
      <stop offset="1" stop-color="#333" stop-opacity="0"/>
    </linearGradient>
    <linearGradient id="m" x1="178.982" y1="147.858" x2="178.982" y2="283.303" gradientUnits="userSpaceOnUse">
      <stop stop-color="#333"/>
      <stop offset="1" stop-color="#333" stop-opacity="0"/>
    </linearGradient>
    <linearGradient id="n" x1="178.982" y1="142.328" x2="178.982" y2="273.02" gradientUnits="userSpaceOnUse">
      <stop stop-color="#333"/>
      <stop offset="1" stop-color="#333" stop-opacity="0"/>
    </linearGradient>
    <linearGradient id="o" x1="178.973" y1="135.88" x2="178.973" y2="263.976" gradientUnits="userSpaceOnUse">
      <stop stop-color="#333"/>
      <stop offset="1" stop-color="#333" stop-opacity="0"/>
    </linearGradient>
    <linearGradient id="p" x1="178.977" y1="129.538" x2="178.977" y2="256.181" gradientUnits="userSpaceOnUse">
      <stop stop-color="#333"/>
      <stop offset="1" stop-color="#333" stop-opacity="0"/>
    </linearGradient>
    <linearGradient id="q" x1="178.982" y1="122.38" x2="178.982" y2="249.256" gradientUnits="userSpaceOnUse">
      <stop stop-color="#333"/>
      <stop offset="1" stop-color="#333" stop-opacity="0"/>
    </linearGradient>
    <linearGradient id="r" x1="178.982" y1="115.076" x2="178.982" y2="243.648" gradientUnits="userSpaceOnUse">
      <stop stop-color="#333"/>
      <stop offset="1" stop-color="#333" stop-opacity="0"/>
    </linearGradient>
    <linearGradient id="s" x1="178.982" y1="107.288" x2="178.982" y2="238.533" gradientUnits="userSpaceOnUse">
      <stop stop-color="#333"/>
      <stop offset="1" stop-color="#333" stop-opacity="0"/>
    </linearGradient>
    <linearGradient id="t" x1="178.982" y1="98.489" x2="178.982" y2="233.303" gradientUnits="userSpaceOnUse">
      <stop stop-color="#333"/>
      <stop offset="1" stop-color="#333" stop-opacity="0"/>
    </linearGradient>
    <linearGradient id="u" x1="178.977" y1="89.076" x2="178.977" y2="227.118" gradientUnits="userSpaceOnUse">
      <stop stop-color="#333"/>
      <stop offset="1" stop-color="#333" stop-opacity="0"/>
    </linearGradient>
    <linearGradient id="v" x1="178.982" y1="80.115" x2="178.982" y2="218.81" gradientUnits="userSpaceOnUse">
      <stop stop-color="#333"/>
      <stop offset="1" stop-color="#333" stop-opacity="0"/>
    </linearGradient>
    <linearGradient id="w" x1="178.973" y1="71.187" x2="178.973" y2="207.984" gradientUnits="userSpaceOnUse">
      <stop stop-color="#333"/>
      <stop offset="1" stop-color="#333" stop-opacity="0"/>
    </linearGradient>
    <linearGradient id="x" x1="178.977" y1="59.88" x2="178.977" y2="193.571" gradientUnits="userSpaceOnUse">
      <stop stop-color="#333"/>
      <stop offset="1" stop-color="#333" stop-opacity="0"/>
    </linearGradient>
    <linearGradient id="y" x1="178.977" y1="47.085" x2="178.977" y2="174.407" gradientUnits="userSpaceOnUse">
      <stop stop-color="#333"/>
      <stop offset="1" stop-color="#333" stop-opacity="0"/>
    </linearGradient>
    <linearGradient id="z" x1="178.977" y1="41.173" x2="178.977" y2="164.943" gradientUnits="userSpaceOnUse">
      <stop stop-color="#333"/>
      <stop offset="1" stop-color="#333" stop-opacity="0"/>
    </linearGradient>
    <linearGradient id="A" x1="178.973" y1="36.797" x2="178.973" y2="154.628" gradientUnits="userSpaceOnUse">
      <stop stop-color="#333"/>
      <stop offset="1" stop-color="#333" stop-opacity="0"/>
    </linearGradient>
    <linearGradient id="B" x1="178.977" y1="33.64" x2="178.977" y2="144.153" gradientUnits="userSpaceOnUse">
      <stop stop-color="#333"/>
      <stop offset="1" stop-color="#333" stop-opacity="0"/>
    </linearGradient>
    <linearGradient id="C" x1="178.973" y1="31.27" x2="178.973" y2="136.536" gradientUnits="userSpaceOnUse">
      <stop stop-color="#333"/>
      <stop offset="1" stop-color="#333" stop-opacity="0"/>
    </linearGradient>
    <linearGradient id="D" x1="178.982" y1="31.453" x2="178.982" y2="130.275" gradientUnits="userSpaceOnUse">
      <stop stop-color="#333"/>
      <stop offset="1" stop-color="#333" stop-opacity="0"/>
    </linearGradient>
    <linearGradient id="E" x1="178.977" y1="29.282" x2="178.977" y2="125.186" gradientUnits="userSpaceOnUse">
      <stop stop-color="#333"/>
      <stop offset="1" stop-color="#333" stop-opacity="0"/>
    </linearGradient>
    <linearGradient id="F" x1="178.977" y1="26.516" x2="178.977" y2="123.362" gradientUnits="userSpaceOnUse">
      <stop stop-color="#333"/>
      <stop offset="1" stop-color="#333" stop-opacity="0"/>
    </linearGradient>
    <linearGradient id="G" x1="178.973" y1="22.727" x2="178.973" y2="120.288" gradientUnits="userSpaceOnUse">
      <stop stop-color="#333"/>
      <stop offset="1" stop-color="#333" stop-opacity="0"/>
    </linearGradient>
    <linearGradient id="H" x1="178.977" y1="17.557" x2="178.977" y2="117.245" gradientUnits="userSpaceOnUse">
      <stop stop-color="#333"/>
      <stop offset="1" stop-color="#333" stop-opacity="0"/>
    </linearGradient>
    <linearGradient id="I" x1="178.986" y1="5.745" x2="178.986" y2="114.076" gradientUnits="userSpaceOnUse">
      <stop stop-color="#333"/>
      <stop offset="1" stop-color="#333" stop-opacity="0"/>
    </linearGradient>
    <linearGradient id="J" x1="178.977" y1="-7.756" x2="178.977" y2="110.369" gradientUnits="userSpaceOnUse">
      <stop stop-color="#333"/>
      <stop offset="1" stop-color="#333" stop-opacity="0"/>
    </linearGradient>
    <linearGradient id="K" x1="178.977" y1="-21.009" x2="178.977" y2="106.013" gradientUnits="userSpaceOnUse">
      <stop stop-color="#333"/>
      <stop offset="1" stop-color="#333" stop-opacity="0"/>
    </linearGradient>
    <linearGradient id="L" x1="178.973" y1="-33.62" x2="178.973" y2="100.246" gradientUnits="userSpaceOnUse">
      <stop stop-color="#333"/>
      <stop offset="1" stop-color="#333" stop-opacity="0"/>
    </linearGradient>
    <linearGradient id="M" x1="178.973" y1="-45.396" x2="178.973" y2="90.683" gradientUnits="userSpaceOnUse">
      <stop stop-color="#333"/>
      <stop offset="1" stop-color="#333" stop-opacity="0"/>
    </linearGradient>
    <linearGradient id="N" x1="178.977" y1="-51.41" x2="178.977" y2="77.907" gradientUnits="userSpaceOnUse">
      <stop stop-color="#333"/>
      <stop offset="1" stop-color="#333" stop-opacity="0"/>
    </linearGradient>
    <linearGradient id="O" x1="178.977" y1="-56.411" x2="178.977" y2="64.837" gradientUnits="userSpaceOnUse">
      <stop stop-color="#333"/>
      <stop offset="1" stop-color="#333" stop-opacity="0"/>
    </linearGradient>
    <linearGradient id="P" x1="178.977" y1="-61.084" x2="178.977" y2="51.713" gradientUnits="userSpaceOnUse">
      <stop stop-color="#333"/>
      <stop offset="1" stop-color="#333" stop-opacity="0"/>
    </linearGradient>
    <linearGradient id="Q" x1="178.982" y1="-64.812" x2="178.982" y2="38.554" gradientUnits="userSpaceOnUse">
      <stop stop-color="#333"/>
      <stop offset="1" stop-color="#333" stop-opacity="0"/>
    </linearGradient>
    <linearGradient id="R" x1="178.973" y1="-67.906" x2="178.973" y2="25.068" gradientUnits="userSpaceOnUse">
      <stop stop-color="#333"/>
      <stop offset="1" stop-color="#333" stop-opacity="0"/>
    </linearGradient>
    <linearGradient id="S" x1="178.982" y1="-70.004" x2="178.982" y2="11.659" gradientUnits="userSpaceOnUse">
      <stop stop-color="#333"/>
      <stop offset="1" stop-color="#333" stop-opacity="0"/>
    </linearGradient>
    <linearGradient id="T" x1="178.977" y1="-71.756" x2="178.977" y2="-1.582" gradientUnits="userSpaceOnUse">
      <stop stop-color="#333"/>
      <stop offset="1" stop-color="#333" stop-opacity="0"/>
    </linearGradient>
    <clipPath id="a">
      <path fill="#fff" transform="translate(-158 -75)" d="M0 0h674v450H0z"/>
    </clipPath>
  </defs>
</svg>
