<svg width="690" height="622" fill="none" xmlns="http://www.w3.org/2000/svg">
  <g clip-path="url(#a)" stroke-miterlimit="10">
    <path d="M-616.154 764.072c190.706-45.322 365.624-7.49 550.41 42.859 85.806 23.366 171.561 37.498 258.93 13.26 46.235-12.824 89.266-33.959 130.58-58.043 64.739-37.729 120.585-97.875 185.76-132.091C680.702 540.21 782.219 760.506 930.15 795.594c69.532 16.492 110.26-21.314 172.18-40.833 74.94-23.622 141.55 15.62 203.67 54.478" stroke="url(#b)"/>
    <path d="M-616.154 728.471c182.12-50.22 336.791-.615 509.378 56.171 85.6 28.162 170.971 49.245 260.186 26.162 135.731-35.113 224.203-141.966 338.278-213.962 185.247-116.881 267.798 143.402 429.415 176.54 69.967 14.363 109.537-30.291 171.377-51.862 78.33-27.315 150.63 21.879 213.55 63.917" stroke="url(#c)"/>
    <path d="M-616.154 693.05c176.712-57.119 312.392 7.079 474.676 70.714 87.626 34.343 176.25 62.198 269.618 33.805 138.422-42.09 228.637-156.739 343.07-236.481 194.551-135.553 258.418 154.097 425.52 188.159 71.12 14.491 115.02-35.062 175.92-59.249 86.01-34.164 164.97 23.982 233.38 71.765" stroke="url(#d)"/>
    <path d="M-616.154 658.271c79.168-30.189 156.44-37.14 238.324-12.773 75.606 22.494 140.525 67.917 211.876 100.055 84.268 37.96 170.843 71.252 263.057 41.012 146.47-48.04 234.634-178.489 354.168-265.027 193.551-140.145 249.858 158.585 408.758 198.879 80.45 20.391 127.069-38.729 195.471-65.763 92.45-36.549 178.82 31.676 250.53 83.359" stroke="url(#e)"/>
    <path d="M-616.154 624.697c71.249-32.292 142.241-42.346 217.488-17.108 74.119 24.854 134.322 77.177 202.598 113.393 79.424 42.141 161.155 84.435 252.549 57.453 153.236-45.193 249.422-191.698 368.341-286.496C627.599 330.275 661.25 655.372 827.377 692.794c85.243 19.211 138.32-49.348 211.513-76.074 98.47-35.934 192.91 42.577 267.11 97.516" stroke="url(#f)"/>
    <path d="M-616.154 592.815C-451.488 504.327-352.585 609-218.468 693.589c76.17 48.04 158.183 103.621 251.524 72.688 151.16-50.092 250.601-200.701 365.188-300.859 73.966-64.634 144.779-79.639 208.134 2.129 54.949 70.893 90.24 173 188.015 193.545 85.14 17.877 145.265-52.298 218.307-80.896 107.49-42.115 213.9 49.964 293.33 110.315" stroke="url(#g)"/>
    <path d="M-616.154 563.165c159.489-100.312 258.879 3.848 384.666 98.389 67.097 50.425 143.062 120.267 233.712 96.593 55.18-14.415 104.105-55.376 146.24-91.54 80.987-69.483 148.212-151.456 225.1-224.863 73.709-70.38 146.367-98.08 209.569-5.232 47.106 69.2 83.243 176.104 177.942 191.211 90.035 14.363 155.927-62.942 234.89-89.668 113.895-38.575 228.715 65.097 310.065 128.654" stroke="url(#h)"/>
    <path d="M-616.154 536.286c62.176-44.757 130.785-72.843 206.544-45.578 67.456 24.289 119.893 80.716 171.741 127.73 58.434 52.99 132.246 147.07 221.947 128.577 50.49-10.413 94.905-49.091 132.631-82.024 83.269-72.714 156.26-156.945 231.123-237.969 70.07-75.869 147.726-130.449 213.08-24.854 44.005 71.073 78.169 183.491 177.968 187.441 88.574 3.514 155.133-67.276 234.967-93.387 122.453-40.037 246.683 77.639 332.203 146.762" stroke="url(#i)"/>
    <path d="M-616.154 511.611c63.816-49.758 134.911-82.793 215.515-54.118 68.019 24.186 124.352 79.331 174.636 128.91 52.283 51.58 122.456 152.892 208.057 135.605 47.9-9.67 90.035-48.425 125.352-79.87 80.757-71.945 152.877-153.969 225.843-233.557 66.815-72.868 145.291-139.298 211.568-34.19 43.364 68.764 76.298 178.515 174.226 179.874 87.806 1.206 161.028-62.583 243.015-84.435 127.612-34.036 252.322 77.536 343.972 148.813" stroke="url(#j)"/>
    <path d="M-616.154 484.116c70.403-55.427 145.522-85.231 231.584-46.757 71.172 31.83 133.502 92.053 188.579 145.376 49.413 47.861 110.64 128.629 188.553 103.467 47.542-15.363 88.881-56.401 124.352-89.386 71.095-66.096 137.167-137.682 204.238-207.805 63.919-66.866 141.473-131.911 210.184-38.678 48.875 66.327 79.988 172.41 177.558 177.258 86.908 4.309 170.946-53.068 254.727-68.457 126.709-23.289 244.549 64.122 342.429 131.475" stroke="url(#k)"/>
    <path d="M-616.154 453.569c75.708-57.813 152.851-83.23 241.297-37.576 67.764 34.959 130.299 91.258 186.042 142.633 51.95 47.886 115.74 130.398 194.243 93.874 40.98-19.057 74.708-55.35 106.898-86.052 67.712-64.634 131.759-133.168 197.882-199.392 68.404-68.508 145.907-121.627 216.874-30.548 48.849 62.711 84.037 161.433 176.661 165.537 85.216 3.796 169.869-37.063 253.036-50.657 128.371-20.98 242.351 44.527 349.271 107.648" stroke="url(#l)"/>
    <path d="M-616.154 420.533c87.318-63.044 170.612-77.305 263.595-18.647 66.815 42.141 128.581 99.235 188.373 150.712 49.926 42.987 106.08 110.469 175.944 71.38 37.418-20.929 68.558-58.248 98.364-88.436 63.458-64.301 125.25-130.167 190.552-192.622 67.661-64.712 145.112-111.418 217.13-29.65 53.77 61.044 91.009 158.407 183.402 167.23 81.423 7.771 170.151-24.084 250.242-36.498 127.992-19.827 240.602 25.443 354.552 80.716" stroke="url(#m)"/>
    <path d="M-616.154 385.625c94.597-63.686 181.582-70.508 276.384-3.873 71.53 50.272 135.808 113.803 203.828 168.897 46.773 37.857 98.518 89.77 156.978 46.27 38.648-28.752 70.198-72.073 102.285-107.365 54.257-59.634 109.872-118.472 169.562-172.693 73.146-66.456 152.468-97.85 226.126-17.749 53.923 58.633 95.237 150.147 183.837 160.074 83.858 9.387 174.534-12.645 257.598-24.059 122.146-16.774 230.866 10.542 345.586 53.042" stroke="url(#n)"/>
    <path d="M-616.154 349.384c107.847-67.482 199.522-60.301 298.527 18.8 75.119 60.018 139.14 129.859 217.437 186.492 53.719 38.832 92.444 60.761 141.473 6.643 83.32-91.977 150.801-196.803 248.422-276.108 71.659-58.197 150.494-79.896 221.897-12.158 60.33 57.222 100.927 145.069 188.014 165.691 80.399 19.005 181.301.256 262.135-10.773 119.299-16.287 226.969-6.72 344.299 22.212" stroke="url(#o)"/>
    <path d="M-616.154 312.424c120.764-70.509 219.103-47.604 320.927 42.653 72.94 64.661 133.604 139.529 216.386 192.648 60.767 39.012 92.752 45.911 134.322-16.21 65.867-98.414 132.169-199.008 228.124-271.594 77.58-58.71 156.184-71.893 231.995-4.207 63.124 56.376 108.052 147.07 197.318 167.025 79.168 17.697 171.561 9.285 251.37-1.59 115.872-15.8 224.712-22.93 341.762-9.875" stroke="url(#p)"/>
    <path d="M-616.154 275.336c131.631-72.714 234.608-36.883 338.944 62.608 73.838 70.406 134.707 156.406 225.613 206.318 67.481 37.063 91.162 17.801 123.353-45.731 51.206-101.03 115.971-203.138 210.824-268.953 80.296-55.734 161.515-57.453 236.941 6.592 65.79 55.889 113.716 144.223 201.855 168.999 189.04 53.145 394.764-26.289 584.674-32.881" stroke="url(#q)"/>
    <path d="M-616.154 238.684c65.482-34.908 127.043-55.632 200.317-30.214 60.612 21.032 110.256 65.173 154.722 110.135 73.351 74.227 136.065 174.103 233.789 218.219 73.299 33.087 90.65-11.49 115.382-73.688 40.314-101.467 101.183-205.421 196.293-264.823 207.288-129.5 282.099 132.527 447.022 189.338 192.602 66.354 386.329-17.364 574.679-53.862" stroke="url(#r)"/>
    <path d="M-616.154 203.058c68.301-36.165 131.246-56.325 205.852-28.855 62.587 23.032 113.178 70.098 158.516 117.779 71.3 74.971 145.035 204.753 251.396 234.608 74.452 20.904 86.19-48.809 105.053-104.928 33.011-98.235 89.907-206.549 185.094-258.514C487.357 55.27 586.874 297.83 736.061 366.389c195.729 89.95 385.259-2.283 569.969-69.944" stroke="url(#s)"/>
    <path d="M-616.154 169.073c68.968-37.55 131.092-57.94 207.006-31.343 62.945 22.058 114.382 71.278 159.131 119.241C-177.41 334.815-99.575 482.68 13.321 504.738c76.734 15.004 87.498-61.711 104.259-119.318 28.782-98.825 80.604-208.216 180.07-254.179 197.882-91.437 304.602 141.427 450.559 216.732 75.99 39.191 174.38 59.274 259.031 45.629 107.31-17.287 205.44-80.922 298.81-132.553" stroke="url(#t)"/>
    <path d="M-616.154 137.269c73.453-42.5 144.445-66.995 225.766-30.266 61.023 27.573 109.436 78.255 153.185 127.449 65.559 73.714 148.187 229.017 258.47 240.662 83.012 8.771 93.494-81.948 111.281-143.197 27.5-94.67 77.015-196.161 176.687-232.685C505.63 27.236 619.192 243.12 760.896 327.48c71.607 42.628 165.205 71.816 248.964 61.377 112.2-14.004 209.31-95.259 296.14-160.792" stroke="url(#u)"/>
    <path d="M-616.154 108.26c69.352-44.218 137.628-74.997 219.564-41.884 65.662 26.546 117.945 82.896 163.052 135.553 64.483 75.279 145.573 229.838 260.135 232.557 81.68 1.924 96.801-90.104 116.074-151.558 29.807-94.952 76.939-187.056 181.48-213.91 200.188-51.452 311.342 145.941 454.583 240.636 70.121 46.372 163.641 84.615 249.066 72.278 111.71-16.159 201.47-109.084 278.23-183.619" stroke="url(#v)"/>
    <path d="M-616.154 82.637c63.662-46.193 129.785-84.897 210.748-57.76 63.098 21.134 112.793 72.893 155.26 121.984 69.558 80.383 139.525 223.375 259.264 232.506 91.035 6.925 114.69-81.614 140.883-151.661 35.727-95.567 85.524-176.489 194.935-191.288C538.897 10.18 650.665 177.076 785.423 282.133c67.558 52.656 159.028 103.082 247.427 94.464 117.25-11.44 203.54-120.549 273.18-204.189" stroke="url(#w)"/>
    <path d="M-616.154 62.426c63.355-44.244 128.683-80.665 208.031-54.811 61.792 20.134 110.974 69.61 152.929 117.214C-187.611 201.467-116.08 348.588.225 352.615c89.932 3.104 120.713-76.612 152.954-146.685 41.34-89.796 97.288-172 203.393-186.337C543.741-5.697 660.66 150.22 793.496 249.943c65.175 48.913 157.106 98.671 240.814 97.029 117.02-2.308 203.7-113.7 271.72-195.007" stroke="url(#x)"/>
    <path d="M-616.154 48.601c62.355-42.705 126.735-78.126 204.52-54.58 60.1 18.185 108.564 64.506 149.853 109.853 66.507 73.073 137.73 218.655 250.268 219.348 88.24.538 125.813-69.739 164.333-138.195 47.055-83.615 108.821-163.844 211.158-177.9 180.403-24.75 302.269 115.086 435.182 208.165 64.534 45.193 155.466 95.618 235.33 102.749 116.43 10.387 204.52-102.108 271.51-180.49" stroke="url(#y)"/>
    <path d="M-616.154 40.035c59.818-40.91 123.762-76.28 198.471-57.3 63.688 16.16 114.28 64.353 157.645 111.008 65.918 70.919 132.015 202.65 242.143 197.751 83.32-3.693 125.788-66.994 169.306-129.295C204.847 85.664 269.356 13.899 367.208-.003c177.686-25.264 302.166 95.618 440.409 181.849 63.868 39.858 144.907 87.129 218.493 106.186 119.27 30.881 210.1-80.973 279.92-159.971" stroke="url(#z)"/>
    <path d="M-616.154 35.623c58.178-40.294 120.764-76.433 194.242-61.48 61.177 12.465 110.897 55.35 153.519 98.414 66.84 67.507 129.068 188.749 235.761 184.004 80.937-3.591 129.607-56.889 179.122-114.316C205.821 73.455 274.302 8.102 368.386-5.595 538.564-30.37 668.964 66.274 808.822 143.169c69.404 38.165 142.395 84.82 215.258 115.701 117.3 49.733 209.52-57.889 281.92-136.399" stroke="url(#A)"/>
    <path d="M-616.154 34.264c122.404-86.847 228.278-86.41 339.431 16.569 68.25 63.224 126.249 171.743 229.2 168.05 78.298-2.821 132.734-46.014 187.913-96.721C205.411 62.426 277.044 4.639 367.387-8.8c162.155-24.136 299.45 45.757 440.564 112.059 77.681 36.498 140.524 82.281 212.879 126.679 114.25 70.097 207.51-29.984 285.22-110.136" stroke="url(#B)"/>
    <path d="M-616.154 34.854c113.921-83.513 218.769-99.723 331.589-6.772 70.044 57.71 123.993 152.251 222.767 150.302C102.664 175.152 203.95 13.95 364.697-10.366 518.675-33.653 663.326 7.64 804.952 62.35c86.575 33.446 141.088 80.819 211.308 138.605 110.16 90.643 203.78 1.975 289.77-82.075" stroke="url(#C)"/>
    <path d="M-616.154 36.29c104.182-79.46 208.21-113.11 322.003-34.395 70.352 48.655 121.943 129.962 212.85 133.091C82.16 140.654 203.797 12.514 360.672-11.981c143.139-22.34 296.118-9.952 434.208 31.497 98.313 29.521 148.52 83.204 217.82 154.866 25.89 26.778 55 54.658 93.88 58.864 77.35 8.336 149.7-68.379 199.45-114.444" stroke="url(#D)"/>
    <path d="M-616.154 37.47c96.929-76.895 200.47-125.756 316.801-61.378 71.966 39.833 122.02 107.443 207.851 112.444 159.695 9.31 294.222-76.33 447.843-100.21 137.807-21.416 293.965-39.267 431.593-9.72C893.808 1.33 941.427 64.708 1005.6 145.707c24.58 31.035 52.41 66.738 93.04 76.485 78.47 18.826 155.9-58.556 207.36-103.673" stroke="url(#E)"/>
    <path d="M-616.154 37.265c94.597-77.973 199.727-138.324 321.516-86.308 66.405 28.367 115.818 80.357 189.707 87.59 158.798 15.569 303.192-26.675 458.248-49.45 81.705-12.004 162.206-23.905 243.22-40.244 62.97-12.696 124.172-19.287 188.194-10.105 110.615 15.85 157.337 94.951 214.695 181.131 22.964 34.498 50.564 77.331 92.294 91.053 79.96 26.315 159.72-48.579 214.31-94.054" stroke="url(#F)"/>
    <path d="M-616.154 34.597c91.111-77.51 196.293-149.327 320.824-116.112 66.021 17.621 119.304 58.608 187.913 67.277C49.1 5.512 194.109 10 350.497-11.801c82.808-11.542 160.438-28.547 239.427-55.94 60.818-21.084 119.175-38.371 184.376-33.754C890.399-93.287 937.557.151 989.968 90.896c22.322 38.653 49.282 88.385 92.542 107.186 81.51 35.421 165.49-39.012 223.57-85.103" stroke="url(#G)"/>
    <path d="M-616.154 28.364c89.83-78.228 194.601-158.124 320.619-146.018 67.661 6.489 129.581 38.5 196.755 48.4C54.763-46.607 189.829 5.076 347.55-14.187c83.448-10.208 158.439-32.01 233.635-69.303 56.64-28.085 110.615-56.504 175.508-57.324C882.839-142.353 930.483-32.09 981.28 65.17c21.94 42.013 48.31 96.67 93.01 119.19 82.93 41.807 170.38-31.83 231.74-78.69" stroke="url(#H)"/>
    <path d="M-616.154 17.464c91.675-80.768 196.728-165.87 323.977-174.283 68.609-4.54 140.832 15.876 207.595 29.727C65.58-95.955 190.598-1.234 350.062-18.47c81.987-8.849 154.389-35.55 223.126-80.588 55.462-36.345 106.284-75.305 175.149-79.332 128.889-7.515 176.098 120.55 223.127 217.732 22.349 46.142 48.006 101.954 94.086 129.269 82.75 49.041 178.17-28.444 240.48-74.612" stroke="url(#I)"/>
    <path d="M-616.154.74c156.875-137.887 322.208-244.2 535.775-192.544 152.032 36.78 269.131 179.823 434.08 166.332 83.576-6.848 153.979-40.422 217.565-93.592 49.797-41.628 94.161-87.283 162.104-94.644C862.951-227.738 910.441-96.57 954.856.484 979.101 53.45 1005.35 119.7 1057.96 151.247c84.83 50.862 183.35-27.29 248.04-74.38" stroke="url(#J)"/>
    <path d="M-616.154-21.984c150.955-129.064 345.146-271.825 556.33-212.628C88.414-193.061 200.414-34.834 363.338-43.196c81.474-4.18 150.698-43.243 208.21-98.593 45.62-43.885 86.396-93.387 153.493-100.825 124.301-13.825 174.892 115.65 218.692 207.703 26.219 55.068 53.693 122.473 107.617 156.355 86.34 54.247 186.07-19.827 254.65-67.636" stroke="url(#K)"/>
    <path d="M-616.154-45.735C-464.661-169.31-265.779-305.76-57.928-254.515 94.847-216.863 215.868-59.842 381.279-70.588c74.965-4.874 137.782-41.32 190.424-92.72 42.006-41.013 78.835-87.744 140.165-97.773 122.328-20.006 182.761 112.726 230.226 200.752C969.363-9.8 998.939 48.755 1048.43 81.355c86.55 57.017 183.94-6.105 257.6-53.555" stroke="url(#L)"/>
    <path d="M-616.154-69.485c154.364-119.216 362.933-251.05 569.247-198.521C103.1-229.815 231.502-86.491 393.375-95.288c69.019-3.745 129.452-40.551 177.712-87.385 38.674-37.524 73.094-82.23 128.658-94.003C820.15-302.17 889.4-168.412 941.837-84.9c31.524 50.194 64.483 105.442 118.613 133.835 85.65 44.91 170.84-4.668 245.58-49.066" stroke="url(#M)"/>
    <path d="M-616.154-93.236C-456.844-208.732-243.2-330.025-37.091-278.933c148.572 36.832 282.432 169.538 441.82 158.638 64.2-4.386 119.072-36.678 164.948-79.845 38.572-36.293 73.223-80.537 128.325-90.719 114.485-21.186 189.066 104.416 244.937 182.234 32.062 44.654 66.051 90.206 114.921 117.266 85.04 47.04 170.74 3.975 248.17-38.294" stroke="url(#N)"/>
    <path d="M-616.154-116.987c160.412-108.109 367.392-212.474 568.53-174.539 155.67 29.368 296.348 159.56 459.836 148.095 61.997-4.36 114.793-36.01 159.951-76.689 36.932-33.292 70.48-71.663 121.661-81.332 105.951-20.032 184.837 88.154 243.066 158.842 38.111 46.296 79.76 97.106 136.78 120.78 80.63 33.471 160.01-2.283 232.38-38.55" stroke="url(#O)"/>
  </g>
  <defs>
    <linearGradient id="b" x1="344.923" y1="608.685" x2="344.923" y2="832.813" gradientUnits="userSpaceOnUse">
      <stop stop-color="#333"/>
      <stop offset="1" stop-color="#333" stop-opacity="0"/>
    </linearGradient>
    <linearGradient id="c" x1="344.936" y1="566.861" x2="344.936" y2="820.655" gradientUnits="userSpaceOnUse">
      <stop stop-color="#333"/>
      <stop offset="1" stop-color="#333" stop-opacity="0"/>
    </linearGradient>
    <linearGradient id="d" x1="344.936" y1="525.197" x2="344.936" y2="809.293" gradientUnits="userSpaceOnUse">
      <stop stop-color="#333"/>
      <stop offset="1" stop-color="#333" stop-opacity="0"/>
    </linearGradient>
    <linearGradient id="e" x1="344.936" y1="484.397" x2="344.936" y2="798.325" gradientUnits="userSpaceOnUse">
      <stop stop-color="#333"/>
      <stop offset="1" stop-color="#333" stop-opacity="0"/>
    </linearGradient>
    <linearGradient id="f" x1="344.923" y1="447.147" x2="344.923" y2="786.924" gradientUnits="userSpaceOnUse">
      <stop stop-color="#333"/>
      <stop offset="1" stop-color="#333" stop-opacity="0"/>
    </linearGradient>
    <linearGradient id="g" x1="344.936" y1="411.476" x2="344.936" y2="775.208" gradientUnits="userSpaceOnUse">
      <stop stop-color="#333"/>
      <stop offset="1" stop-color="#333" stop-opacity="0"/>
    </linearGradient>
    <linearGradient id="h" x1="344.936" y1="377.304" x2="344.936" y2="762.902" gradientUnits="userSpaceOnUse">
      <stop stop-color="#333"/>
      <stop offset="1" stop-color="#333" stop-opacity="0"/>
    </linearGradient>
    <linearGradient id="i" x1="344.949" y1="343.449" x2="344.949" y2="749.387" gradientUnits="userSpaceOnUse">
      <stop stop-color="#333"/>
      <stop offset="1" stop-color="#333" stop-opacity="0"/>
    </linearGradient>
    <linearGradient id="j" x1="344.936" y1="319.805" x2="344.936" y2="723.968" gradientUnits="userSpaceOnUse">
      <stop stop-color="#333"/>
      <stop offset="1" stop-color="#333" stop-opacity="0"/>
    </linearGradient>
    <linearGradient id="k" x1="344.949" y1="303.878" x2="344.949" y2="690.95" gradientUnits="userSpaceOnUse">
      <stop stop-color="#333"/>
      <stop offset="1" stop-color="#333" stop-opacity="0"/>
    </linearGradient>
    <linearGradient id="l" x1="344.949" y1="288.077" x2="344.949" y2="661.564" gradientUnits="userSpaceOnUse">
      <stop stop-color="#333"/>
      <stop offset="1" stop-color="#333" stop-opacity="0"/>
    </linearGradient>
    <linearGradient id="m" x1="344.923" y1="269.648" x2="344.923" y2="635.719" gradientUnits="userSpaceOnUse">
      <stop stop-color="#333"/>
      <stop offset="1" stop-color="#333" stop-opacity="0"/>
    </linearGradient>
    <linearGradient id="n" x1="344.936" y1="251.525" x2="344.936" y2="613.442" gradientUnits="userSpaceOnUse">
      <stop stop-color="#333"/>
      <stop offset="1" stop-color="#333" stop-opacity="0"/>
    </linearGradient>
    <linearGradient id="o" x1="344.949" y1="231.068" x2="344.949" y2="593.652" gradientUnits="userSpaceOnUse">
      <stop stop-color="#333"/>
      <stop offset="1" stop-color="#333" stop-opacity="0"/>
    </linearGradient>
    <linearGradient id="p" x1="344.949" y1="210.196" x2="344.949" y2="577.625" gradientUnits="userSpaceOnUse">
      <stop stop-color="#333"/>
      <stop offset="1" stop-color="#333" stop-opacity="0"/>
    </linearGradient>
    <linearGradient id="q" x1="344.949" y1="187.938" x2="344.949" y2="563.007" gradientUnits="userSpaceOnUse">
      <stop stop-color="#333"/>
      <stop offset="1" stop-color="#333" stop-opacity="0"/>
    </linearGradient>
    <linearGradient id="r" x1="344.949" y1="162.793" x2="344.949" y2="548.063" gradientUnits="userSpaceOnUse">
      <stop stop-color="#333"/>
      <stop offset="1" stop-color="#333" stop-opacity="0"/>
    </linearGradient>
    <linearGradient id="s" x1="344.936" y1="135.893" x2="344.936" y2="530.385" gradientUnits="userSpaceOnUse">
      <stop stop-color="#333"/>
      <stop offset="1" stop-color="#333" stop-opacity="0"/>
    </linearGradient>
    <linearGradient id="t" x1="344.949" y1="110.284" x2="344.949" y2="506.644" gradientUnits="userSpaceOnUse">
      <stop stop-color="#333"/>
      <stop offset="1" stop-color="#333" stop-opacity="0"/>
    </linearGradient>
    <linearGradient id="u" x1="344.923" y1="84.77" x2="344.923" y2="475.705" gradientUnits="userSpaceOnUse">
      <stop stop-color="#333"/>
      <stop offset="1" stop-color="#333" stop-opacity="0"/>
    </linearGradient>
    <linearGradient id="v" x1="344.936" y1="52.456" x2="344.936" y2="434.516" gradientUnits="userSpaceOnUse">
      <stop stop-color="#333"/>
      <stop offset="1" stop-color="#333" stop-opacity="0"/>
    </linearGradient>
    <linearGradient id="w" x1="344.936" y1="15.891" x2="344.936" y2="379.749" gradientUnits="userSpaceOnUse">
      <stop stop-color="#333"/>
      <stop offset="1" stop-color="#333" stop-opacity="0"/>
    </linearGradient>
    <linearGradient id="x" x1="344.936" y1="-1.004" x2="344.936" y2="352.703" gradientUnits="userSpaceOnUse">
      <stop stop-color="#333"/>
      <stop offset="1" stop-color="#333" stop-opacity="0"/>
    </linearGradient>
    <linearGradient id="y" x1="344.923" y1="-13.508" x2="344.923" y2="323.225" gradientUnits="userSpaceOnUse">
      <stop stop-color="#333"/>
      <stop offset="1" stop-color="#333" stop-opacity="0"/>
    </linearGradient>
    <linearGradient id="z" x1="344.936" y1="-22.532" x2="344.936" y2="293.291" gradientUnits="userSpaceOnUse">
      <stop stop-color="#333"/>
      <stop offset="1" stop-color="#333" stop-opacity="0"/>
    </linearGradient>
    <linearGradient id="A" x1="344.923" y1="-29.303" x2="344.923" y2="271.522" gradientUnits="userSpaceOnUse">
      <stop stop-color="#333"/>
      <stop offset="1" stop-color="#333" stop-opacity="0"/>
    </linearGradient>
    <linearGradient id="B" x1="344.949" y1="-28.779" x2="344.949" y2="253.632" gradientUnits="userSpaceOnUse">
      <stop stop-color="#333"/>
      <stop offset="1" stop-color="#333" stop-opacity="0"/>
    </linearGradient>
    <linearGradient id="C" x1="344.936" y1="-34.985" x2="344.936" y2="239.086" gradientUnits="userSpaceOnUse">
      <stop stop-color="#333"/>
      <stop offset="1" stop-color="#333" stop-opacity="0"/>
    </linearGradient>
    <linearGradient id="D" x1="344.936" y1="-42.89" x2="344.936" y2="233.873" gradientUnits="userSpaceOnUse">
      <stop stop-color="#333"/>
      <stop offset="1" stop-color="#333" stop-opacity="0"/>
    </linearGradient>
    <linearGradient id="E" x1="344.923" y1="-53.719" x2="344.923" y2="225.088" gradientUnits="userSpaceOnUse">
      <stop stop-color="#333"/>
      <stop offset="1" stop-color="#333" stop-opacity="0"/>
    </linearGradient>
    <linearGradient id="F" x1="344.936" y1="-68.493" x2="344.936" y2="216.394" gradientUnits="userSpaceOnUse">
      <stop stop-color="#333"/>
      <stop offset="1" stop-color="#333" stop-opacity="0"/>
    </linearGradient>
    <linearGradient id="G" x1="344.961" y1="-102.247" x2="344.961" y2="207.338" gradientUnits="userSpaceOnUse">
      <stop stop-color="#333"/>
      <stop offset="1" stop-color="#333" stop-opacity="0"/>
    </linearGradient>
    <linearGradient id="H" x1="344.936" y1="-140.83" x2="344.936" y2="196.744" gradientUnits="userSpaceOnUse">
      <stop stop-color="#333"/>
      <stop offset="1" stop-color="#333" stop-opacity="0"/>
    </linearGradient>
    <linearGradient id="I" x1="344.936" y1="-178.706" x2="344.936" y2="184.296" gradientUnits="userSpaceOnUse">
      <stop stop-color="#333"/>
      <stop offset="1" stop-color="#333" stop-opacity="0"/>
    </linearGradient>
    <linearGradient id="J" x1="344.923" y1="-214.746" x2="344.923" y2="167.815" gradientUnits="userSpaceOnUse">
      <stop stop-color="#333"/>
      <stop offset="1" stop-color="#333" stop-opacity="0"/>
    </linearGradient>
    <linearGradient id="K" x1="344.923" y1="-248.399" x2="344.923" y2="140.485" gradientUnits="userSpaceOnUse">
      <stop stop-color="#333"/>
      <stop offset="1" stop-color="#333" stop-opacity="0"/>
    </linearGradient>
    <linearGradient id="L" x1="344.936" y1="-265.585" x2="344.936" y2="103.975" gradientUnits="userSpaceOnUse">
      <stop stop-color="#333"/>
      <stop offset="1" stop-color="#333" stop-opacity="0"/>
    </linearGradient>
    <linearGradient id="M" x1="344.936" y1="-279.878" x2="344.936" y2="66.624" gradientUnits="userSpaceOnUse">
      <stop stop-color="#333"/>
      <stop offset="1" stop-color="#333" stop-opacity="0"/>
    </linearGradient>
    <linearGradient id="N" x1="344.936" y1="-293.231" x2="344.936" y2="29.119" gradientUnits="userSpaceOnUse">
      <stop stop-color="#333"/>
      <stop offset="1" stop-color="#333" stop-opacity="0"/>
    </linearGradient>
    <linearGradient id="O" x1="344.949" y1="-303.885" x2="344.949" y2="-8.487" gradientUnits="userSpaceOnUse">
      <stop stop-color="#333"/>
      <stop offset="1" stop-color="#333" stop-opacity="0"/>
    </linearGradient>
    <clipPath id="a">
      <path fill="#fff" transform="translate(-617 -333)" d="M0 0h1924v1286H0z"/>
    </clipPath>
  </defs>
</svg>
