<svg width="920" height="814" fill="none" xmlns="http://www.w3.org/2000/svg">
  <g clip-path="url(#a)" stroke-miterlimit="10">
    <path d="M-501.154 929.631c194.396-34.087 392.996-23.417 586.7 11.08 84.064 14.979 168.255 24.854 252.831 7.669 107.386-21.827 186.58-86.436 284.893-127.73 159.438-66.969 286.405 95.49 435.13 120.189 58.72 9.747 107.13-15.132 163.33-25.982 72.15-13.927 134.48 6.566 199.3 37.883" stroke="url(#b)"/>
    <path d="M-501.154 895.287c194.55-39.96 385.384-16.312 577.064 26.957 84.32 19.031 168.87 29.445 253.933 8.387 44.159-10.926 85.883-28.752 126.172-49.681 60.305-31.317 113.665-83.641 174.175-111.623 162.642-75.228 278.69 114.47 423.37 145.966 65.84 14.338 109.64-17.159 170.35-32.625 72.17-18.364 135.09 11.26 197.12 46.322" stroke="url(#c)"/>
    <path d="M-501.154 860.072c190.706-45.322 365.624-7.49 550.41 42.859 85.806 23.366 171.561 37.498 258.93 13.26 46.235-12.824 89.266-33.959 130.58-58.043 64.739-37.729 120.585-97.875 185.76-132.091 171.176-89.847 272.693 130.449 420.624 165.537 69.53 16.492 110.26-21.314 172.18-40.833 74.94-23.622 141.55 15.62 203.67 54.478" stroke="url(#d)"/>
    <path d="M-501.154 824.471c182.12-50.22 336.791-.615 509.378 56.171 85.6 28.162 170.971 49.245 260.186 26.162 135.731-35.113 224.203-141.966 338.278-213.962 185.247-116.881 267.798 143.402 429.412 176.54 69.97 14.363 109.54-30.291 171.38-51.862 78.33-27.315 150.63 21.879 213.55 63.917" stroke="url(#e)"/>
    <path d="M-501.154 789.05c176.712-57.119 312.392 7.079 474.676 70.714 87.626 34.343 176.251 62.198 269.618 33.805 138.422-42.09 228.637-156.739 343.07-236.481 194.551-135.553 258.418 154.097 425.52 188.159 71.12 14.491 115.02-35.062 175.92-59.249 86.01-34.164 164.97 23.982 233.38 71.765" stroke="url(#f)"/>
    <path d="M-501.154 754.271c79.168-30.189 156.44-37.14 238.324-12.773 75.606 22.494 140.525 67.917 211.876 100.055 84.268 37.96 170.843 71.252 263.057 41.012 146.47-48.04 234.634-178.489 354.168-265.027 193.551-140.145 249.858 158.585 408.758 198.879 80.451 20.391 127.071-38.729 195.471-65.763 92.45-36.549 178.82 31.676 250.53 83.359" stroke="url(#g)"/>
    <path d="M-501.154 720.697c71.249-32.292 142.241-42.346 217.488-17.108 74.119 24.854 134.322 77.177 202.598 113.393 79.424 42.141 161.155 84.435 252.549 57.453 153.236-45.193 249.422-191.698 368.341-286.496C742.599 426.275 776.25 751.372 942.377 788.794c85.243 19.211 138.323-49.348 211.513-76.074 98.47-35.934 192.91 42.577 267.11 97.516" stroke="url(#h)"/>
    <path d="M-501.154 688.815C-336.488 600.327-237.585 705-103.468 789.589c76.17 48.04 158.183 103.621 251.524 72.688 151.16-50.092 250.601-200.701 365.188-300.859 73.966-64.634 144.779-79.639 208.134 2.129 54.949 70.893 90.24 173 188.015 193.545 85.14 17.877 145.267-52.298 218.307-80.896 107.49-42.115 213.9 49.964 293.33 110.315" stroke="url(#i)"/>
    <path d="M-501.154 659.165c159.489-100.312 258.879 3.848 384.666 98.389 67.097 50.425 143.062 120.267 233.712 96.593 55.179-14.415 104.105-55.376 146.24-91.54 80.987-69.483 148.212-151.456 225.1-224.863 73.709-70.38 146.367-98.08 209.569-5.232 47.106 69.2 83.243 176.104 177.942 191.211 90.035 14.363 155.925-62.942 234.895-89.668 113.89-38.575 228.71 65.097 310.06 128.654" stroke="url(#j)"/>
    <path d="M-501.154 632.286c62.176-44.757 130.785-72.843 206.544-45.578 67.456 24.289 119.893 80.716 171.741 127.73 58.434 52.99 132.246 147.07 221.947 128.577 50.49-10.413 94.905-49.091 132.631-82.024 83.269-72.714 156.26-156.945 231.123-237.969 70.07-75.869 147.726-130.449 213.08-24.854 44.005 71.073 78.169 183.491 177.968 187.441 88.574 3.514 155.13-67.276 234.97-93.387 122.45-40.037 246.68 77.639 332.2 146.762" stroke="url(#k)"/>
    <path d="M-501.154 607.611c63.816-49.758 134.911-82.793 215.515-54.118 68.019 24.186 124.352 79.331 174.636 128.91 52.283 51.58 122.456 152.892 208.057 135.605 47.901-9.67 90.035-48.425 125.352-79.87 80.757-71.945 152.877-153.969 225.843-233.557 66.815-72.868 145.291-139.298 211.568-34.19 43.364 68.764 76.298 178.515 174.226 179.874 87.806 1.206 161.028-62.583 243.017-84.435 127.61-34.036 252.32 77.536 343.97 148.813" stroke="url(#l)"/>
    <path d="M-501.154 580.116c70.403-55.427 145.522-85.231 231.584-46.757 71.172 31.83 133.502 92.053 188.579 145.376 49.413 47.861 110.64 128.629 188.553 103.467 47.542-15.363 88.881-56.401 124.352-89.386 71.095-66.096 137.167-137.682 204.238-207.805 63.919-66.866 141.473-131.911 210.184-38.678 48.875 66.327 79.988 172.41 177.558 177.258 86.908 4.309 170.946-53.068 254.726-68.457 126.71-23.289 244.55 64.122 342.43 131.475" stroke="url(#m)"/>
    <path d="M-501.154 549.569c75.708-57.813 152.851-83.23 241.297-37.576 67.764 34.959 130.299 91.258 186.042 142.633 51.95 47.886 115.74 130.398 194.243 93.874 40.98-19.057 74.708-55.35 106.898-86.052 67.712-64.634 131.759-133.168 197.882-199.392 68.404-68.508 145.907-121.627 216.874-30.548 48.849 62.711 84.037 161.433 176.661 165.537 85.216 3.796 169.869-37.063 253.037-50.657 128.37-20.98 242.35 44.527 349.27 107.648" stroke="url(#n)"/>
    <path d="M-501.154 516.533c87.318-63.044 170.612-77.305 263.595-18.647 66.815 42.141 128.581 99.235 188.373 150.712 49.926 42.987 106.08 110.469 175.944 71.38 37.418-20.929 68.558-58.248 98.364-88.436 63.458-64.301 125.25-130.167 190.552-192.622 67.661-64.712 145.112-111.418 217.13-29.65 53.77 61.044 91.009 158.407 183.402 167.23 81.423 7.771 170.151-24.084 250.244-36.498 127.99-19.827 240.6 25.443 354.55 80.716" stroke="url(#o)"/>
    <path d="M-501.154 481.625c94.597-63.686 181.582-70.508 276.384-3.873 71.53 50.272 135.808 113.803 203.828 168.897 46.773 37.857 98.518 89.77 156.978 46.27 38.648-28.752 70.198-72.073 102.285-107.365 54.257-59.634 109.872-118.472 169.562-172.693 73.146-66.456 152.468-97.85 226.126-17.749 53.923 58.633 95.237 150.147 183.837 160.074 83.858 9.387 174.534-12.645 257.594-24.059 122.15-16.774 230.87 10.542 345.59 53.042" stroke="url(#p)"/>
    <path d="M-501.154 445.384c107.847-67.482 199.522-60.301 298.527 18.8 75.119 60.018 139.14 129.859 217.437 186.492 53.719 38.832 92.444 60.761 141.473 6.643 83.32-91.977 150.801-196.803 248.422-276.108 71.659-58.197 150.494-79.896 221.897-12.158 60.33 57.222 100.927 145.069 188.014 165.691 80.399 19.005 181.301.256 262.134-10.773 119.3-16.287 226.97-6.72 344.3 22.212" stroke="url(#q)"/>
    <path d="M-501.154 408.424c120.764-70.509 219.103-47.604 320.927 42.653 72.94 64.661 133.604 139.529 216.386 192.648 60.767 39.012 92.752 45.911 134.322-16.21 65.867-98.414 132.169-199.008 228.124-271.594 77.58-58.71 156.184-71.893 231.995-4.207 63.124 56.376 108.052 147.07 197.318 167.025 79.168 17.697 171.561 9.285 251.372-1.59 115.87-15.8 224.71-22.93 341.76-9.875" stroke="url(#r)"/>
    <path d="M-501.154 371.336c131.631-72.714 234.608-36.883 338.944 62.608C-88.372 504.35-27.503 590.35 63.403 640.262c67.481 37.063 91.162 17.801 123.353-45.731 51.206-101.03 115.971-203.138 210.824-268.953 80.296-55.734 161.515-57.453 236.941 6.592 65.79 55.889 113.716 144.223 201.855 168.999 189.044 53.145 394.764-26.289 584.674-32.881" stroke="url(#s)"/>
    <path d="M-501.154 334.684c65.482-34.908 127.043-55.632 200.317-30.214 60.612 21.032 110.256 65.173 154.722 110.135 73.35 74.227 136.065 174.103 233.789 218.219 73.299 33.087 90.65-11.49 115.382-73.688 40.314-101.467 101.183-205.421 196.293-264.823C606.637 164.812 681.448 426.84 846.371 483.651c192.599 66.354 386.329-17.364 574.679-53.862" stroke="url(#t)"/>
    <path d="M-501.154 299.058c68.301-36.165 131.246-56.325 205.852-28.855 62.587 23.032 113.178 70.098 158.516 117.779 71.3 74.971 145.035 204.753 251.396 234.608 74.452 20.904 86.19-48.809 105.053-104.928 33.011-98.235 89.907-206.549 185.094-258.514 197.6-107.878 297.117 134.682 446.304 203.241 195.729 89.95 385.259-2.283 569.969-69.944" stroke="url(#u)"/>
    <path d="M-501.154 265.073c68.968-37.55 131.092-57.94 207.006-31.343 62.945 22.058 114.382 71.278 159.131 119.241C-62.41 430.815 15.425 578.68 128.321 600.738c76.734 15.004 87.498-61.711 104.259-119.318 28.782-98.825 80.604-208.216 180.07-254.179 197.882-91.437 304.602 141.427 450.559 216.732 75.99 39.191 174.381 59.274 259.031 45.629 107.31-17.287 205.44-80.922 298.81-132.553" stroke="url(#v)"/>
    <path d="M-501.154 233.269c73.453-42.5 144.445-66.995 225.766-30.266 61.023 27.573 109.436 78.255 153.185 127.449 65.56 73.714 148.187 229.017 258.469 240.662 83.013 8.771 93.495-81.948 111.282-143.197 27.5-94.67 77.015-196.161 176.687-232.685C620.63 123.236 734.192 339.121 875.896 423.48c71.607 42.628 165.204 71.816 248.964 61.377 112.2-14.004 209.31-95.259 296.14-160.792" stroke="url(#w)"/>
    <path d="M-501.154 204.26c69.352-44.218 137.628-74.997 219.564-41.884 65.662 26.546 117.945 82.896 163.052 135.553 64.483 75.279 145.573 229.838 260.135 232.557 81.68 1.924 96.801-90.104 116.074-151.558 29.807-94.952 76.939-187.056 181.48-213.91 200.188-51.452 311.342 145.941 454.583 240.636 70.121 46.372 163.646 84.615 249.066 72.278 111.71-16.159 201.47-109.084 278.23-183.619" stroke="url(#x)"/>
    <path d="M-501.154 178.637c63.662-46.193 129.785-84.897 210.748-57.761 63.098 21.135 112.793 72.894 155.26 121.985 69.558 80.383 139.525 223.375 259.264 232.506 91.035 6.925 114.69-81.614 140.883-151.661 35.727-95.567 85.524-176.489 194.935-191.288 193.961-26.238 305.729 140.658 440.487 245.715 67.558 52.656 159.027 103.082 247.427 94.464 117.25-11.44 203.54-120.549 273.18-204.189" stroke="url(#y)"/>
    <path d="M-501.154 158.426c63.355-44.244 128.683-80.665 208.031-54.811 61.792 20.134 110.974 69.61 152.929 117.214C-72.611 297.467-1.08 444.588 115.225 448.615c89.932 3.104 120.713-76.612 152.954-146.685 41.34-89.796 97.288-172 203.393-186.337 187.169-25.29 304.088 130.628 436.924 230.35 65.175 48.913 157.104 98.671 240.814 97.029 117.02-2.308 203.7-113.7 271.72-195.007" stroke="url(#z)"/>
    <path d="M-501.154 144.601c62.355-42.705 126.735-78.126 204.52-54.58 60.1 18.185 108.564 64.506 149.853 109.853 66.507 73.073 137.73 218.655 250.268 219.348 88.241.538 125.813-69.739 164.333-138.195 47.055-83.615 108.821-163.844 211.158-177.9 180.403-24.75 302.269 115.086 435.182 208.165 64.534 45.193 155.47 95.618 235.33 102.749 116.43 10.387 204.52-102.108 271.51-180.49" stroke="url(#A)"/>
    <path d="M-501.154 136.035c59.818-40.91 123.762-76.28 198.471-57.3 63.688 16.159 114.28 64.353 157.645 111.008 65.918 70.919 132.015 202.65 242.143 197.751 83.32-3.693 125.788-66.994 169.306-129.295 53.436-76.535 117.945-148.3 215.797-162.202 177.686-25.264 302.166 95.618 440.409 181.849 63.868 39.858 144.903 87.129 218.493 106.186 119.27 30.881 210.1-80.973 279.92-159.971" stroke="url(#B)"/>
    <path d="M-501.154 131.623c58.178-40.294 120.764-76.433 194.242-61.48 61.177 12.465 110.897 55.35 153.519 98.414 66.84 67.507 129.067 188.749 235.761 184.004 80.937-3.591 129.607-56.889 179.122-114.316 59.331-68.79 127.812-134.143 221.896-147.84 170.178-24.776 300.578 71.868 440.436 148.763 69.404 38.165 142.398 84.82 215.258 115.701 117.3 49.733 209.52-57.889 281.92-136.399" stroke="url(#C)"/>
    <path d="M-501.154 130.264c122.404-86.847 228.278-86.41 339.431 16.569 68.25 63.224 126.249 171.743 229.2 168.05 78.298-2.821 132.734-46.014 187.913-96.721 65.021-59.736 136.654-117.523 226.997-130.963 162.155-24.135 299.45 45.758 440.564 112.06 77.679 36.498 140.519 82.281 212.879 126.679 114.25 70.097 207.51-29.984 285.22-110.136" stroke="url(#D)"/>
    <path d="M-501.154 130.854c113.921-83.513 218.769-99.723 331.589-6.772 70.044 57.71 123.993 152.251 222.767 150.302 164.462-3.232 265.748-164.434 426.494-188.75 153.979-23.288 298.63 18.006 440.256 72.715 86.578 33.446 141.088 80.819 211.308 138.605 110.16 90.643 203.78 1.975 289.77-82.075" stroke="url(#E)"/>
    <path d="M-501.154 132.29c104.182-79.46 208.21-113.11 322.003-34.395 70.352 48.656 121.944 129.962 212.85 133.091 163.462 5.668 285.098-122.473 441.973-146.967 143.139-22.34 296.118-9.952 434.208 31.497 98.31 29.521 148.52 83.204 217.82 154.866 25.89 26.778 55 54.658 93.88 58.864 77.35 8.336 149.7-68.379 199.45-114.444" stroke="url(#F)"/>
    <path d="M-501.154 133.47c96.929-76.895 200.47-125.756 316.801-61.378 71.966 39.833 122.02 107.443 207.851 112.444 159.695 9.311 294.222-76.33 447.843-100.21 137.807-21.416 293.965-39.267 431.593-9.72C1008.81 97.33 1056.43 160.709 1120.6 241.707c24.58 31.035 52.41 66.738 93.04 76.485 78.47 18.826 155.9-58.556 207.36-103.673" stroke="url(#G)"/>
    <path d="M-501.154 133.265c94.597-77.972 199.727-138.324 321.516-86.308 66.405 28.367 115.818 80.357 189.707 87.59 158.798 15.569 303.192-26.675 458.248-49.45 81.705-12.004 162.206-23.905 243.22-40.243 62.97-12.697 124.172-19.288 188.194-10.106 110.619 15.85 157.339 94.951 214.699 181.131 22.96 34.498 50.56 77.331 92.29 91.053 79.96 26.315 159.72-48.579 214.31-94.054" stroke="url(#H)"/>
    <path d="M-501.154 130.597C-410.043 53.087-304.861-18.73-180.33 14.485-114.309 32.106-61.026 73.093 7.583 81.762 164.099 101.511 309.109 106 465.497 84.199c82.808-11.542 160.438-28.547 239.427-55.94C765.742 7.176 824.099-10.111 889.3-5.495c116.1 8.208 163.26 101.646 215.67 192.391 22.32 38.653 49.28 88.385 92.54 107.186 81.51 35.421 165.49-39.012 223.57-85.103" stroke="url(#I)"/>
    <path d="M-501.154 124.364c89.83-78.228 194.601-158.124 320.619-146.018 67.661 6.49 129.581 38.5 196.755 48.4 153.544 22.647 288.609 74.329 446.33 55.067 83.448-10.208 158.439-32.01 233.635-69.303 56.64-28.085 110.615-56.504 175.508-57.324C997.839-46.354 1045.48 63.91 1096.28 161.17c21.94 42.013 48.31 96.67 93.01 119.19 82.93 41.807 170.38-31.83 231.74-78.69" stroke="url(#J)"/>
    <path d="M-501.154 113.464c91.675-80.768 196.728-165.87 323.977-174.283 68.609-4.54 140.832 15.876 207.595 29.727C180.58.045 305.598 94.766 465.062 77.53c81.987-8.849 154.389-35.55 223.126-80.588C743.65-39.403 794.472-78.363 863.337-82.39c128.889-7.515 176.093 120.55 223.123 217.732 22.35 46.142 48.01 101.954 94.09 129.269 82.75 49.041 178.17-28.444 240.48-74.612" stroke="url(#K)"/>
    <path d="M-501.154 96.74C-344.279-41.146-178.946-147.46 34.621-95.803 186.653-59.024 303.752 84.02 468.701 70.528c83.576-6.848 153.979-40.423 217.565-93.592 49.797-41.628 94.161-87.283 162.104-94.644C977.951-131.738 1025.44-.57 1069.86 96.484c24.24 52.965 50.49 119.215 103.1 150.763 84.83 50.862 183.35-27.29 248.04-74.381" stroke="url(#L)"/>
    <path d="M-501.154 74.016c150.955-129.064 345.146-271.825 556.33-212.628C203.414-97.061 315.414 61.166 478.338 52.804c81.474-4.18 150.698-43.243 208.21-98.593 45.62-43.885 86.396-93.387 153.493-100.825 124.301-13.825 174.889 115.65 218.689 207.703 26.22 55.068 53.7 122.473 107.62 156.355 86.34 54.247 186.07-19.827 254.65-67.636" stroke="url(#M)"/>
    <path d="M-501.154 50.265C-349.661-73.31-150.779-209.76 57.072-158.515 209.847-120.863 330.868 36.158 496.279 25.412c74.965-4.873 137.782-41.32 190.424-92.72 42.006-41.013 78.835-87.744 140.165-97.773C949.195-185.087 1009.63-52.355 1057.09 35.671c27.27 50.528 56.85 109.084 106.34 141.684 86.55 57.017 183.94-6.105 257.6-53.555" stroke="url(#N)"/>
    <path d="M-501.154 26.515C-346.79-92.701-138.221-224.535 68.093-172.006 218.1-133.815 346.502 9.51 508.375.712c69.019-3.745 129.452-40.55 177.712-87.385 38.674-37.524 73.094-82.23 128.658-94.003C935.15-206.17 1004.4-72.412 1056.84 11.1c31.52 50.194 64.48 105.442 118.61 133.835 85.65 44.911 170.84-4.668 245.58-49.066" stroke="url(#O)"/>
    <path d="M-501.154 2.764C-341.844-112.732-128.2-234.025 77.909-182.933c148.572 36.832 282.432 169.538 441.82 158.638 64.2-4.386 119.072-36.678 164.948-79.845 38.572-36.293 73.223-80.537 128.325-90.719C927.487-216.045 1002.07-90.443 1057.94-12.625c32.06 44.654 66.05 90.206 114.92 117.266 85.04 47.039 170.74 3.975 248.17-38.294" stroke="url(#P)"/>
    <path d="M-501.154-20.987c160.412-108.109 367.392-212.474 568.53-174.539 155.67 29.368 296.348 159.56 459.836 148.096 61.997-4.36 114.793-36.011 159.951-76.69 36.932-33.292 70.48-71.663 121.661-81.332 105.951-20.032 184.837 88.154 243.066 158.842C1090-.314 1131.65 50.496 1188.67 74.17c80.63 33.471 160.01-2.283 232.38-38.55" stroke="url(#Q)"/>
    <path d="M-501.154-44.737c164.41-101.723 375.671-195.059 574.937-156.919C225.686-172.571 373.284-57.049 532.159-68.77c115.382-8.516 165.743-121.703 269.746-144.633 104.566-23.033 189.706 78.895 253.985 144.864 38.65 39.678 78.99 81.357 131.17 102.902 80.78 33.343 159.18 3.77 233.94-30.342" stroke="url(#R)"/>
    <path d="M-501.154-68.488C-332.413-162.901-125.15-239.54 72.245-207.76 225.379-183.112 375.693-78.389 534.26-90.264 643.184-98.42 701.413-200.117 801.956-219.84c98.031-19.211 182.376 61.711 249.704 120.831 41.57 36.524 84.34 74.843 136.71 95.131 80.19 31.086 156.9 7.233 232.68-24.135" stroke="url(#S)"/>
  </g>
  <defs>
    <linearGradient id="b" x1="459.936" y1="804.582" x2="459.936" y2="957.455" gradientUnits="userSpaceOnUse">
      <stop stop-color="#333"/>
      <stop offset="1" stop-color="#333" stop-opacity="0"/>
    </linearGradient>
    <linearGradient id="c" x1="459.936" y1="751.824" x2="459.936" y2="942.264" gradientUnits="userSpaceOnUse">
      <stop stop-color="#333"/>
      <stop offset="1" stop-color="#333" stop-opacity="0"/>
    </linearGradient>
    <linearGradient id="d" x1="459.923" y1="704.685" x2="459.923" y2="928.813" gradientUnits="userSpaceOnUse">
      <stop stop-color="#333"/>
      <stop offset="1" stop-color="#333" stop-opacity="0"/>
    </linearGradient>
    <linearGradient id="e" x1="459.936" y1="662.861" x2="459.936" y2="916.655" gradientUnits="userSpaceOnUse">
      <stop stop-color="#333"/>
      <stop offset="1" stop-color="#333" stop-opacity="0"/>
    </linearGradient>
    <linearGradient id="f" x1="459.936" y1="621.197" x2="459.936" y2="905.293" gradientUnits="userSpaceOnUse">
      <stop stop-color="#333"/>
      <stop offset="1" stop-color="#333" stop-opacity="0"/>
    </linearGradient>
    <linearGradient id="g" x1="459.936" y1="580.397" x2="459.936" y2="894.325" gradientUnits="userSpaceOnUse">
      <stop stop-color="#333"/>
      <stop offset="1" stop-color="#333" stop-opacity="0"/>
    </linearGradient>
    <linearGradient id="h" x1="459.923" y1="543.147" x2="459.923" y2="882.924" gradientUnits="userSpaceOnUse">
      <stop stop-color="#333"/>
      <stop offset="1" stop-color="#333" stop-opacity="0"/>
    </linearGradient>
    <linearGradient id="i" x1="459.936" y1="507.476" x2="459.936" y2="871.208" gradientUnits="userSpaceOnUse">
      <stop stop-color="#333"/>
      <stop offset="1" stop-color="#333" stop-opacity="0"/>
    </linearGradient>
    <linearGradient id="j" x1="459.936" y1="473.304" x2="459.936" y2="858.902" gradientUnits="userSpaceOnUse">
      <stop stop-color="#333"/>
      <stop offset="1" stop-color="#333" stop-opacity="0"/>
    </linearGradient>
    <linearGradient id="k" x1="459.949" y1="439.449" x2="459.949" y2="845.387" gradientUnits="userSpaceOnUse">
      <stop stop-color="#333"/>
      <stop offset="1" stop-color="#333" stop-opacity="0"/>
    </linearGradient>
    <linearGradient id="l" x1="459.936" y1="415.805" x2="459.936" y2="819.968" gradientUnits="userSpaceOnUse">
      <stop stop-color="#333"/>
      <stop offset="1" stop-color="#333" stop-opacity="0"/>
    </linearGradient>
    <linearGradient id="m" x1="459.949" y1="399.878" x2="459.949" y2="786.95" gradientUnits="userSpaceOnUse">
      <stop stop-color="#333"/>
      <stop offset="1" stop-color="#333" stop-opacity="0"/>
    </linearGradient>
    <linearGradient id="n" x1="459.949" y1="384.077" x2="459.949" y2="757.564" gradientUnits="userSpaceOnUse">
      <stop stop-color="#333"/>
      <stop offset="1" stop-color="#333" stop-opacity="0"/>
    </linearGradient>
    <linearGradient id="o" x1="459.923" y1="365.648" x2="459.923" y2="731.719" gradientUnits="userSpaceOnUse">
      <stop stop-color="#333"/>
      <stop offset="1" stop-color="#333" stop-opacity="0"/>
    </linearGradient>
    <linearGradient id="p" x1="459.936" y1="347.525" x2="459.936" y2="709.442" gradientUnits="userSpaceOnUse">
      <stop stop-color="#333"/>
      <stop offset="1" stop-color="#333" stop-opacity="0"/>
    </linearGradient>
    <linearGradient id="q" x1="459.949" y1="327.068" x2="459.949" y2="689.652" gradientUnits="userSpaceOnUse">
      <stop stop-color="#333"/>
      <stop offset="1" stop-color="#333" stop-opacity="0"/>
    </linearGradient>
    <linearGradient id="r" x1="459.949" y1="306.196" x2="459.949" y2="673.625" gradientUnits="userSpaceOnUse">
      <stop stop-color="#333"/>
      <stop offset="1" stop-color="#333" stop-opacity="0"/>
    </linearGradient>
    <linearGradient id="s" x1="459.949" y1="283.938" x2="459.949" y2="659.007" gradientUnits="userSpaceOnUse">
      <stop stop-color="#333"/>
      <stop offset="1" stop-color="#333" stop-opacity="0"/>
    </linearGradient>
    <linearGradient id="t" x1="459.949" y1="258.793" x2="459.949" y2="644.063" gradientUnits="userSpaceOnUse">
      <stop stop-color="#333"/>
      <stop offset="1" stop-color="#333" stop-opacity="0"/>
    </linearGradient>
    <linearGradient id="u" x1="459.936" y1="231.893" x2="459.936" y2="626.385" gradientUnits="userSpaceOnUse">
      <stop stop-color="#333"/>
      <stop offset="1" stop-color="#333" stop-opacity="0"/>
    </linearGradient>
    <linearGradient id="v" x1="459.949" y1="206.284" x2="459.949" y2="602.644" gradientUnits="userSpaceOnUse">
      <stop stop-color="#333"/>
      <stop offset="1" stop-color="#333" stop-opacity="0"/>
    </linearGradient>
    <linearGradient id="w" x1="459.923" y1="180.77" x2="459.923" y2="571.705" gradientUnits="userSpaceOnUse">
      <stop stop-color="#333"/>
      <stop offset="1" stop-color="#333" stop-opacity="0"/>
    </linearGradient>
    <linearGradient id="x" x1="459.936" y1="148.456" x2="459.936" y2="530.516" gradientUnits="userSpaceOnUse">
      <stop stop-color="#333"/>
      <stop offset="1" stop-color="#333" stop-opacity="0"/>
    </linearGradient>
    <linearGradient id="y" x1="459.936" y1="111.891" x2="459.936" y2="475.749" gradientUnits="userSpaceOnUse">
      <stop stop-color="#333"/>
      <stop offset="1" stop-color="#333" stop-opacity="0"/>
    </linearGradient>
    <linearGradient id="z" x1="459.936" y1="94.996" x2="459.936" y2="448.703" gradientUnits="userSpaceOnUse">
      <stop stop-color="#333"/>
      <stop offset="1" stop-color="#333" stop-opacity="0"/>
    </linearGradient>
    <linearGradient id="A" x1="459.923" y1="82.492" x2="459.923" y2="419.225" gradientUnits="userSpaceOnUse">
      <stop stop-color="#333"/>
      <stop offset="1" stop-color="#333" stop-opacity="0"/>
    </linearGradient>
    <linearGradient id="B" x1="459.936" y1="73.468" x2="459.936" y2="389.291" gradientUnits="userSpaceOnUse">
      <stop stop-color="#333"/>
      <stop offset="1" stop-color="#333" stop-opacity="0"/>
    </linearGradient>
    <linearGradient id="C" x1="459.923" y1="66.697" x2="459.923" y2="367.522" gradientUnits="userSpaceOnUse">
      <stop stop-color="#333"/>
      <stop offset="1" stop-color="#333" stop-opacity="0"/>
    </linearGradient>
    <linearGradient id="D" x1="459.949" y1="67.221" x2="459.949" y2="349.632" gradientUnits="userSpaceOnUse">
      <stop stop-color="#333"/>
      <stop offset="1" stop-color="#333" stop-opacity="0"/>
    </linearGradient>
    <linearGradient id="E" x1="459.936" y1="61.015" x2="459.936" y2="335.086" gradientUnits="userSpaceOnUse">
      <stop stop-color="#333"/>
      <stop offset="1" stop-color="#333" stop-opacity="0"/>
    </linearGradient>
    <linearGradient id="F" x1="459.936" y1="53.11" x2="459.936" y2="329.873" gradientUnits="userSpaceOnUse">
      <stop stop-color="#333"/>
      <stop offset="1" stop-color="#333" stop-opacity="0"/>
    </linearGradient>
    <linearGradient id="G" x1="459.923" y1="42.281" x2="459.923" y2="321.088" gradientUnits="userSpaceOnUse">
      <stop stop-color="#333"/>
      <stop offset="1" stop-color="#333" stop-opacity="0"/>
    </linearGradient>
    <linearGradient id="H" x1="459.936" y1="27.507" x2="459.936" y2="312.394" gradientUnits="userSpaceOnUse">
      <stop stop-color="#333"/>
      <stop offset="1" stop-color="#333" stop-opacity="0"/>
    </linearGradient>
    <linearGradient id="I" x1="459.961" y1="-6.247" x2="459.961" y2="303.338" gradientUnits="userSpaceOnUse">
      <stop stop-color="#333"/>
      <stop offset="1" stop-color="#333" stop-opacity="0"/>
    </linearGradient>
    <linearGradient id="J" x1="459.936" y1="-44.83" x2="459.936" y2="292.744" gradientUnits="userSpaceOnUse">
      <stop stop-color="#333"/>
      <stop offset="1" stop-color="#333" stop-opacity="0"/>
    </linearGradient>
    <linearGradient id="K" x1="459.936" y1="-82.706" x2="459.936" y2="280.296" gradientUnits="userSpaceOnUse">
      <stop stop-color="#333"/>
      <stop offset="1" stop-color="#333" stop-opacity="0"/>
    </linearGradient>
    <linearGradient id="L" x1="459.923" y1="-118.746" x2="459.923" y2="263.815" gradientUnits="userSpaceOnUse">
      <stop stop-color="#333"/>
      <stop offset="1" stop-color="#333" stop-opacity="0"/>
    </linearGradient>
    <linearGradient id="M" x1="459.923" y1="-152.399" x2="459.923" y2="236.485" gradientUnits="userSpaceOnUse">
      <stop stop-color="#333"/>
      <stop offset="1" stop-color="#333" stop-opacity="0"/>
    </linearGradient>
    <linearGradient id="N" x1="459.936" y1="-169.585" x2="459.936" y2="199.975" gradientUnits="userSpaceOnUse">
      <stop stop-color="#333"/>
      <stop offset="1" stop-color="#333" stop-opacity="0"/>
    </linearGradient>
    <linearGradient id="O" x1="459.936" y1="-183.878" x2="459.936" y2="162.624" gradientUnits="userSpaceOnUse">
      <stop stop-color="#333"/>
      <stop offset="1" stop-color="#333" stop-opacity="0"/>
    </linearGradient>
    <linearGradient id="P" x1="459.936" y1="-197.231" x2="459.936" y2="125.119" gradientUnits="userSpaceOnUse">
      <stop stop-color="#333"/>
      <stop offset="1" stop-color="#333" stop-opacity="0"/>
    </linearGradient>
    <linearGradient id="Q" x1="459.949" y1="-207.885" x2="459.949" y2="87.513" gradientUnits="userSpaceOnUse">
      <stop stop-color="#333"/>
      <stop offset="1" stop-color="#333" stop-opacity="0"/>
    </linearGradient>
    <linearGradient id="R" x1="459.923" y1="-216.726" x2="459.923" y2="48.973" gradientUnits="userSpaceOnUse">
      <stop stop-color="#333"/>
      <stop offset="1" stop-color="#333" stop-opacity="0"/>
    </linearGradient>
    <linearGradient id="S" x1="459.949" y1="-222.724" x2="459.949" y2="10.652" gradientUnits="userSpaceOnUse">
      <stop stop-color="#333"/>
      <stop offset="1" stop-color="#333" stop-opacity="0"/>
    </linearGradient>
    <clipPath id="a">
      <path fill="#fff" transform="translate(-502 -237)" d="M0 0h1924v1286H0z"/>
    </clipPath>
  </defs>
</svg>
