<svg width="24" height="25" fill="none" xmlns="http://www.w3.org/2000/svg">
  <path fill-rule="evenodd" clip-rule="evenodd" d="M4.8 20.3V4.7h-.3a.9.9 0 1 1 0-1.8h15a.9.9 0 1 1 0 1.8h-.3v15.6h.3a.9.9 0 0 1 0 1.8h-4.2a.9.9 0 0 1-.9-.9v-3a.9.9 0 0 0-.9-.9h-3a.9.9 0 0 0-.9.9v3a.9.9 0 0 1-.9.9H4.5a.9.9 0 1 1 0-1.8h.3ZM8.4 7.1a.6.6 0 0 1 .6-.6h1.2a.6.6 0 0 1 .6.6v1.2a.6.6 0 0 1-.6.6H9a.6.6 0 0 1-.6-.6V7.1Zm.6 4.2a.6.6 0 0 0-.6.6v1.2a.6.6 0 0 0 .6.6h1.2a.6.6 0 0 0 .6-.6v-1.2a.6.6 0 0 0-.6-.6H9Zm4.2-4.2a.6.6 0 0 1 .6-.6H15a.6.6 0 0 1 .6.6v1.2a.6.6 0 0 1-.6.6h-1.2a.6.6 0 0 1-.6-.6V7.1Zm.6 4.2a.6.6 0 0 0-.6.6v1.2a.6.6 0 0 0 .6.6H15a.6.6 0 0 0 .6-.6v-1.2a.6.6 0 0 0-.6-.6h-1.2Z" fill="#fff"/>
</svg>
