<svg width="24" height="25" fill="none" xmlns="http://www.w3.org/2000/svg">
  <g clip-path="url(#a)" fill="#fff">
    <path d="M2.27 16.262h9.84v1.808h6.152v-1.805h2.443c.159 2.15.171 4.065-2.034 5.525-.027.018-.049.042-.109.095l.803.668-.973.931c-.29-.3-.604-.647-.946-.963-.1-.094-.279-.132-.425-.14-.238-.015-.48.023-.72.024-3.195.002-6.39.002-9.586.002-.153 0-.317.029-.458-.014-.426-.128-.697.07-.95.375-.217.26-.463.495-.688.733l-.884-.93.755-.67c-.2-.143-.351-.243-.494-.354-1.068-.823-1.645-1.914-1.72-3.255-.038-.664-.007-1.332-.007-2.03ZM2.276 11.287c-.006-.119-.015-.226-.015-.333 0-1.74-.003-3.48 0-5.22.003-1.913 1.33-3.248 3.24-3.234.641.005 1.302-.009 1.918.137C8.512 2.895 9.2 3.653 9.532 4.72c.065.207.148.308.376.37 1.286.348 2.188 1.55 2.205 2.891.003.216 0 .432 0 .667H6.026c-.29-1.535.544-3.12 2.287-3.614-.157-.685-.832-1.263-1.54-1.288a21.512 21.512 0 0 0-1.608 0c-.922.036-1.665.884-1.668 1.9-.007 1.75-.002 3.502-.002 5.253v.386h-1.22v.001ZM12.093 15.033H2.388c-.673 0-1.157-.32-1.328-.863-.256-.819.324-1.607 1.208-1.619.94-.012 1.881-.003 2.822-.003h7.003v2.484Z"/>
    <path d="M17.024 16.871h-3.66c-.007-.115-.016-.22-.016-.326-.002-1.268-.002-2.537 0-3.805 0-.918.501-1.422 1.415-1.426.339-.001.678-.008 1.017.002.76.024 1.258.536 1.26 1.3.004 1.323.001 2.645 0 3.969 0 .086-.01.171-.016.286ZM18.283 15.02v-2.472c.595 0 1.182-.002 1.768 0 .305.002.617-.023.916.026.652.108 1.076.642 1.05 1.265-.027.612-.478 1.137-1.119 1.17-.859.045-1.722.011-2.614.011Z"/>
  </g>
  <defs>
    <clipPath id="a">
      <path fill="#fff" transform="translate(1 2.5)" d="M0 0h21.017v21H0z"/>
    </clipPath>
  </defs>
</svg>
